<svg xmlns="http://www.w3.org/2000/svg" xmlns:xlink="http://www.w3.org/1999/xlink" width="940" zoomAndPan="magnify" viewBox="0 0 705.12 472.50001" height="788" preserveAspectRatio="xMidYMid meet" version="1.0"><defs><clipPath id="1a85356ee4"><path d="M 182.015625 110.34375 L 521 110.34375 L 521 471.957031 L 182.015625 471.957031 Z M 182.015625 110.34375 " clip-rule="nonzero"/></clipPath></defs><g clip-path="url(#1a85356ee4)"><path fill="#000000" d="M 510.058594 414.84375 C 514.246094 417.453125 518.582031 420.757812 519.398438 426.027344 C 520.070312 430.371094 522.082031 434.734375 519.945312 439.402344 C 518.050781 443.539062 515.742188 447.097656 512.117188 449.957031 C 505.449219 455.207031 497.925781 458.597656 490.101562 461.722656 C 481.367188 465.210938 472.429688 467.683594 463.257812 469.519531 C 457.128906 470.746094 451.058594 472.28125 444.910156 473.402344 C 440.726562 474.160156 436.460938 474.480469 432.222656 474.921875 C 425.597656 475.617188 418.914062 475.929688 412.351562 476.988281 C 404.683594 478.226562 396.933594 477.722656 389.304688 478.523438 C 372.835938 480.253906 356.367188 479.074219 339.910156 479.265625 C 331 479.371094 322.074219 478.460938 313.167969 477.863281 C 308.347656 477.539062 303.535156 477.027344 298.746094 476.378906 C 293.808594 475.707031 288.914062 474.730469 283.988281 473.964844 C 282.183594 473.683594 280.332031 473.703125 278.527344 473.433594 C 274.519531 472.832031 270.523438 472.140625 266.527344 471.460938 C 266.25 471.414062 266.007812 471.148438 265.503906 470.984375 C 262.105469 470.460938 258.917969 470.09375 255.808594 469.382812 C 249.222656 467.871094 242.59375 466.460938 236.140625 464.496094 C 228.507812 462.171875 220.914062 459.621094 213.542969 456.582031 C 207.507812 454.09375 201.636719 451.066406 196.039062 447.699219 C 190.960938 444.644531 186.574219 440.621094 184.160156 434.902344 C 182.03125 429.863281 182.148438 425.066406 185.800781 420.777344 C 193.777344 411.40625 208.066406 407.84375 209.261719 407.421875 C 211.714844 406.5625 212.65625 405.816406 212.246094 394.089844 C 211.984375 386.65625 211.625 379.226562 211.269531 371.796875 C 211.179688 369.96875 210.859375 368.152344 210.828125 366.328125 C 210.816406 365.527344 211.269531 364.71875 211.511719 363.914062 C 212.09375 364.734375 213.09375 365.511719 213.175781 366.382812 C 213.519531 369.945312 213.644531 373.53125 213.730469 377.109375 C 213.9375 385.597656 214.050781 394.082031 214.253906 402.566406 C 214.296875 404.226562 214.492188 405.898438 214.777344 407.535156 C 214.859375 408.007812 215.410156 408.566406 215.886719 408.78125 C 221.074219 411.125 226.152344 413.835938 231.535156 415.613281 C 239.226562 418.152344 247.105469 420.160156 254.988281 422.070312 C 260.335938 423.367188 265.8125 424.160156 271.25 425.074219 C 277.484375 426.125 283.734375 427.113281 289.988281 428.039062 C 295.964844 428.921875 301.964844 429.664062 307.941406 430.527344 C 315.847656 431.671875 323.742188 432.660156 331.777344 432.566406 C 337.058594 432.503906 342.34375 433.328125 347.636719 433.445312 C 360.214844 433.71875 372.804688 433.996094 385.386719 433.894531 C 391.839844 433.84375 398.316406 433.214844 404.730469 432.433594 C 412.09375 431.539062 419.484375 430.585938 426.703125 428.945312 C 437.15625 426.570312 447.417969 423.378906 457.84375 420.878906 C 466.738281 418.746094 474.78125 414.535156 483.167969 411.164062 C 484.886719 410.472656 485.996094 409.007812 485.90625 406.695312 C 485.464844 395.40625 485.132812 384.109375 484.921875 372.808594 C 484.882812 370.566406 485.542969 368.316406 485.847656 366.0625 C 486.09375 364.257812 485.359375 364.199219 483.796875 364.65625 C 481.207031 365.410156 478.523438 365.847656 475.871094 366.363281 C 471.382812 367.222656 468.191406 364.726562 465.070312 362.089844 C 459.261719 357.179688 455.574219 357.574219 450.390625 361.664062 C 446.972656 364.359375 443.6875 367.226562 440.195312 369.820312 C 437.746094 371.640625 434.84375 371.390625 431.867188 371.445312 C 427.414062 371.523438 423.957031 368.796875 419.851562 368.183594 C 416.023438 367.609375 412.117188 365.566406 408.316406 367.449219 C 405.558594 368.816406 402.691406 370.621094 400.804688 372.976562 C 394.507812 380.847656 386.445312 384.144531 376.65625 383.054688 C 372.859375 382.632812 369.949219 379.789062 366.808594 377.726562 C 364.035156 375.90625 361.316406 373.976562 358.433594 372.34375 C 353.265625 369.421875 349.945312 371.195312 345.992188 374.351562 C 343.417969 376.402344 340.941406 378.703125 338.066406 380.21875 C 330.984375 383.953125 324.125 382.84375 317.910156 378.054688 C 314.308594 375.28125 311.109375 371.976562 307.480469 369.246094 C 303.722656 366.414062 300.863281 366.550781 297.070312 369.070312 C 291.96875 372.457031 286.480469 374.621094 280.242188 374.253906 C 272.535156 373.800781 266.535156 370.59375 262.464844 363.730469 C 260.773438 360.882812 258.542969 358.09375 255.929688 356.113281 C 251.597656 352.835938 246.769531 354.613281 242.332031 356.328125 C 236.742188 358.492188 231.480469 361.71875 225.746094 363.238281 C 217.8125 365.347656 210.421875 362.996094 204.746094 356.980469 C 201.007812 353.015625 198.871094 348.257812 198.835938 342.390625 C 198.773438 332.949219 201.503906 324.253906 205.027344 315.796875 C 206.980469 311.09375 211.363281 308.21875 215.703125 305.6875 C 222.773438 301.558594 230.46875 299.675781 238.628906 299.792969 C 240.058594 299.8125 241.511719 300.316406 242.886719 300.792969 C 243.3125 300.9375 243.511719 301.734375 243.816406 302.234375 C 243.351562 302.390625 242.886719 302.679688 242.421875 302.6875 C 239.847656 302.734375 237.253906 302.527344 234.699219 302.746094 C 227.269531 303.375 220.648438 306.242188 214.359375 310.171875 C 208.367188 313.917969 206.6875 319.972656 204.800781 326.148438 C 203.191406 331.421875 201.835938 336.710938 201.960938 342.210938 C 202.160156 351.230469 207.265625 357.789062 215.546875 360.289062 C 218.339844 361.132812 221.691406 360.277344 224.769531 359.996094 C 231.183594 359.40625 236.421875 355.617188 242.238281 353.386719 C 247.65625 351.3125 253.191406 350.632812 258.128906 354.144531 C 260.535156 355.859375 262.410156 358.589844 263.957031 361.199219 C 267.035156 366.378906 271.535156 369.292969 277.179688 370.820312 C 282.1875 372.179688 286.675781 370.445312 291.128906 368.570312 C 293.789062 367.449219 296.472656 366.3125 298.941406 364.835938 C 301.628906 363.226562 304.0625 363.921875 306.402344 365.191406 C 308.574219 366.367188 310.644531 367.796875 312.558594 369.363281 C 315.539062 371.800781 318.085938 374.871094 321.300781 376.910156 C 326.324219 380.089844 333.863281 380.496094 339.277344 376.148438 C 341.261719 374.554688 343.109375 372.785156 345.164062 371.292969 C 351.078125 366.992188 356.179688 367.503906 362.265625 371.125 C 367.316406 374.132812 371.609375 378.558594 377.683594 379.703125 C 379.15625 379.980469 380.730469 380.371094 382.160156 380.125 C 387.628906 379.183594 392.488281 377.128906 396.441406 372.871094 C 399.230469 369.867188 402.578125 367.308594 405.957031 364.953125 C 408.90625 362.894531 412.5625 363.535156 415.757812 364.1875 C 420.367188 365.132812 424.738281 367.253906 429.351562 368.152344 C 434.023438 369.0625 438.632812 368.570312 442.402344 364.804688 C 444.800781 362.40625 447.695312 360.519531 450.273438 358.289062 C 454.609375 354.539062 461.113281 355.664062 465.34375 358.410156 C 467.542969 359.835938 469.699219 361.355469 472.023438 362.535156 C 473.035156 363.046875 474.441406 362.984375 475.640625 362.871094 C 477.164062 362.726562 478.652344 362.207031 480.171875 361.953125 C 485.699219 361.023438 488.460938 357.363281 490.363281 352.398438 C 492.125 347.8125 493.789062 343.289062 493.234375 338.300781 C 492.320312 330.140625 490.910156 322.050781 484.859375 315.90625 C 482.128906 313.128906 478.84375 310.808594 475.542969 308.699219 C 472.613281 306.828125 469.449219 304.996094 466.132812 304.136719 C 462.992188 303.320312 459.5 303.617188 456.195312 303.839844 C 455.5 303.886719 454.464844 305.71875 454.394531 306.78125 C 454.160156 310.21875 454.199219 313.6875 454.339844 317.136719 C 454.441406 319.503906 453.507812 320.90625 451.425781 321.992188 C 445.214844 325.222656 438.484375 326.910156 431.835938 328.859375 C 424.925781 330.878906 418.023438 332.816406 410.757812 333.375 C 404.335938 333.867188 397.964844 334.988281 391.5625 335.753906 C 389.179688 336.039062 386.757812 335.976562 384.378906 336.285156 C 369.753906 338.179688 355.070312 337.105469 340.417969 337.160156 C 331.996094 337.191406 323.566406 336.335938 315.152344 335.746094 C 310.25 335.402344 305.351562 334.929688 300.488281 334.25 C 296.035156 333.628906 291.640625 332.597656 287.203125 331.839844 C 282.96875 331.117188 278.671875 330.699219 274.476562 329.804688 C 269.230469 328.6875 263.980469 327.453125 258.871094 325.824219 C 254.984375 324.582031 251.320312 322.652344 247.5625 321.011719 C 245.613281 320.164062 244.648438 318.816406 244.765625 316.527344 C 245.183594 308.195312 245.488281 299.859375 245.777344 291.523438 C 245.992188 285.261719 246.089844 278.992188 246.296875 272.730469 C 246.347656 271.203125 246.671875 269.6875 246.738281 268.160156 C 246.765625 267.585938 246.566406 266.882812 246.222656 266.421875 C 241.777344 260.425781 238.90625 253.867188 238.886719 246.265625 C 238.875 241.960938 238.535156 237.621094 238.96875 233.359375 C 239.589844 227.265625 243.175781 222.949219 248.617188 220.324219 C 257.613281 215.984375 266.910156 212.386719 276.613281 209.964844 C 280.585938 208.976562 284.632812 208.289062 288.648438 207.472656 C 292.667969 206.65625 296.679688 205.8125 300.710938 205.066406 C 302.339844 204.765625 304.011719 204.679688 305.664062 204.511719 C 308.976562 204.175781 312.289062 203.800781 315.609375 203.542969 C 317.464844 203.402344 317.777344 202.332031 317.773438 200.757812 C 317.742188 189.902344 317.753906 179.046875 317.765625 168.191406 C 317.765625 167.480469 317.640625 166.570312 318.007812 166.089844 C 320.074219 163.386719 318.78125 161.683594 316.714844 159.707031 C 311.863281 155.066406 310.800781 148.839844 312.082031 142.804688 C 312.914062 138.886719 316.019531 135.433594 318.175781 131.8125 C 320.679688 127.609375 323.867188 123.761719 324.78125 118.761719 C 325.105469 116.996094 325.476562 115.222656 325.605469 113.4375 C 325.703125 112.113281 325.5625 110.425781 327.128906 110.417969 C 327.945312 110.414062 329.148438 111.953125 329.523438 113.023438 C 331.15625 117.703125 332.515625 122.476562 334.035156 127.195312 C 335.480469 131.691406 337.476562 136.066406 338.390625 140.664062 C 339.855469 148.019531 339.875 155.433594 334.292969 161.433594 C 332.863281 162.96875 333.046875 164.484375 333.066406 166.128906 C 333.082031 167.210938 333.449219 168.289062 333.519531 169.378906 C 334.035156 177.234375 334.476562 185.09375 335.035156 192.941406 C 335.21875 195.53125 335.625 198.105469 336.015625 200.675781 C 336.226562 202.066406 336.699219 203.09375 338.558594 203.074219 C 346.691406 202.972656 354.828125 203.003906 362.960938 203.046875 C 364.792969 203.058594 365.371094 202.308594 365.640625 200.492188 C 366.246094 196.441406 367.285156 192.457031 368.007812 188.421875 C 368.0625 188.136719 368.933594 180.324219 368.921875 179.84375 C 368.890625 178.601562 368.355469 177.476562 367.851562 178.308594 C 367.699219 178.554688 364.863281 184.519531 363.917969 182.519531 C 362.929688 180.429688 366.058594 172.421875 369.058594 163.246094 C 369.195312 162.835938 369.082031 162.34375 369.085938 161.886719 C 368.621094 161.949219 368.117188 161.914062 367.699219 162.085938 C 354.449219 167.621094 354.476562 167.648438 351.304688 168.882812 C 351.148438 168.945312 350.988281 168.964844 350.835938 168.949219 C 350.320312 169.136719 349.796875 169.277344 349.273438 169.347656 C 348.242188 169.492188 347.90625 168.222656 348.8125 167.007812 C 354.109375 162.28125 359.441406 157.851562 364.675781 153.304688 C 366.660156 151.582031 366.433594 151.746094 363.902344 150.65625 C 360.066406 149 356.414062 146.910156 352.707031 144.960938 C 352.351562 144.777344 352.160156 144.285156 351.894531 143.9375 C 352.382812 143.730469 352.902344 143.296875 353.359375 143.355469 C 356.148438 143.714844 358.933594 144.109375 361.691406 144.648438 C 363.71875 145.039062 365.699219 145.679688 367.707031 146.175781 C 367.953125 146.234375 368.496094 146.074219 368.496094 146.015625 C 368.496094 145.464844 368.574219 144.816406 368.316406 144.386719 C 367.472656 142.992188 366.453125 141.707031 365.582031 140.328125 C 363.285156 136.683594 360.992188 133.03125 358.792969 129.324219 C 358.371094 128.609375 358.375 127.640625 358.179688 126.789062 C 359.03125 127.148438 360.078125 127.300781 360.703125 127.902344 C 364.140625 131.203125 367.472656 134.613281 370.84375 137.984375 C 371.25 138.390625 371.609375 138.871094 372.078125 139.179688 C 372.375 139.371094 372.835938 139.3125 373.222656 139.363281 C 373.207031 139.023438 373.257812 138.667969 373.167969 138.351562 C 372.078125 134.445312 370.945312 130.550781 369.878906 126.640625 C 369.371094 124.785156 368.917969 122.910156 368.578125 121.019531 C 368.507812 120.613281 369.039062 120.097656 369.296875 119.632812 C 369.863281 119.949219 370.699219 120.128906 370.945312 120.609375 C 371.738281 122.160156 372.320312 123.816406 372.964844 125.441406 C 374.453125 129.183594 375.898438 132.945312 377.429688 136.667969 C 377.71875 137.367188 378.46875 137.875 378.777344 138.574219 C 379.117188 139.335938 379.265625 140.207031 379.328125 141.042969 C 379.347656 141.285156 378.570312 141.824219 378.542969 141.800781 C 378 141.308594 377.476562 140.78125 377.015625 140.203125 C 376.425781 139.457031 375.898438 138.664062 375.339844 137.890625 C 375.371094 138.972656 375.417969 140.050781 375.425781 141.132812 C 375.433594 141.804688 375.378906 142.480469 375.351562 143.15625 C 374.730469 142.972656 373.957031 142.96875 373.519531 142.582031 C 371.046875 140.386719 368.664062 138.085938 366.222656 135.851562 C 365.902344 135.558594 365.421875 135.441406 365.015625 135.246094 C 365.078125 135.757812 364.992188 136.359375 365.230469 136.769531 C 367.105469 140.03125 368.9375 143.320312 371.003906 146.460938 C 372.007812 147.988281 371.109375 148.234375 370.082031 148.207031 C 368.445312 148.164062 366.804688 147.863281 365.179688 147.585938 C 364.59375 147.488281 364.066406 147.003906 363.488281 146.941406 C 362.5625 146.847656 361.617188 146.960938 360.679688 146.988281 C 361.371094 147.410156 362.035156 147.890625 362.761719 148.242188 C 364.539062 149.101562 366.382812 149.832031 368.109375 150.78125 C 368.445312 150.964844 368.664062 152.242188 368.425781 152.460938 C 358.792969 161.308594 358.054688 160.773438 356.667969 164.277344 C 361.605469 162.730469 365.445312 159.660156 370.316406 159.5625 C 370.886719 159.550781 371.722656 159.597656 371.960938 159.945312 C 373.265625 161.847656 368.300781 167.839844 368.585938 174.847656 C 372.210938 171.695312 372.507812 166.011719 377.1875 163.382812 C 379.269531 162.214844 379.160156 164.269531 383.347656 175.328125 C 383.613281 176.035156 384.222656 176.609375 384.675781 177.246094 C 384.714844 176.496094 384.769531 175.746094 384.796875 174.992188 C 384.953125 170.449219 385.054688 165.90625 385.304688 161.367188 C 385.347656 160.597656 386.195312 159.175781 386.390625 159.222656 C 387.472656 159.488281 388.574219 159.964844 389.460938 160.644531 C 390.253906 161.25 390.746094 162.238281 391.425781 163.003906 C 391.667969 163.269531 392.085938 163.375 392.421875 163.550781 C 392.363281 163.160156 392.425781 162.6875 392.226562 162.386719 C 391.167969 160.761719 389.960938 159.222656 388.960938 157.5625 C 388.152344 156.222656 386.765625 154.554688 387.050781 153.378906 C 387.523438 151.449219 389.789062 152.328125 391.332031 152.214844 C 394.054688 152.007812 396.792969 151.941406 399.5 151.652344 C 400.0625 151.59375 400.546875 150.816406 401.066406 150.367188 C 400.488281 150.15625 399.882812 149.707031 399.339844 149.773438 C 396.253906 150.148438 393.417969 149.210938 390.585938 148.246094 C 388.160156 147.417969 387.761719 146.144531 389.234375 144.066406 C 390.550781 142.21875 391.945312 140.429688 393.210938 138.550781 C 393.550781 138.046875 393.542969 137.3125 393.695312 136.679688 C 393.125 136.910156 392.457031 137.015625 392 137.382812 C 389.890625 139.082031 387.851562 140.867188 385.753906 142.582031 C 385.390625 142.878906 384.859375 142.980469 384.402344 143.171875 C 384.207031 142.675781 383.792969 142.15625 383.851562 141.695312 C 384.15625 139.292969 384.507812 136.894531 384.984375 134.523438 C 385.5 131.957031 386.203125 129.429688 386.734375 126.871094 C 386.816406 126.484375 386.40625 125.996094 386.222656 125.554688 C 385.914062 125.867188 385.476562 126.125 385.3125 126.503906 C 383.894531 129.78125 382.550781 133.089844 381.117188 136.359375 C 380.890625 136.878906 380.328125 137.253906 379.921875 137.699219 C 379.742188 137.03125 379.257812 136.273438 379.429688 135.71875 C 380.234375 133.105469 381.136719 130.511719 382.164062 127.976562 C 383.277344 125.230469 384.5625 122.554688 385.789062 119.859375 C 386.105469 119.164062 386.414062 118.441406 386.875 117.851562 C 387.199219 117.433594 387.777344 117.21875 388.242188 116.910156 C 388.410156 117.5 388.738281 118.09375 388.714844 118.675781 C 388.613281 121.324219 388.238281 123.972656 388.292969 126.613281 C 388.363281 130.0625 387.972656 133.378906 386.839844 136.636719 C 386.621094 137.265625 386.875 138.058594 386.914062 138.773438 C 387.484375 138.4375 388.125 138.179688 388.613281 137.75 C 391.636719 135.101562 394.640625 132.421875 397.621094 129.730469 C 398.527344 128.914062 399.296875 127.941406 400.25 127.195312 C 400.515625 126.988281 401.320312 127.21875 401.679688 127.5 C 401.859375 127.640625 401.714844 128.4375 401.492188 128.796875 C 398.210938 134.105469 394.875 139.378906 391.617188 144.699219 C 391.417969 145.027344 391.625 146.019531 391.914062 146.160156 C 392.925781 146.65625 394.042969 147.144531 395.148438 147.226562 C 398.851562 147.5 402.570312 147.574219 406.277344 147.78125 C 406.949219 147.820312 407.667969 148.027344 408.238281 148.367188 C 408.4375 148.484375 408.402344 149.574219 408.21875 149.65625 C 404.769531 151.234375 401.347656 152.929688 397.765625 154.152344 C 396.183594 154.691406 394.253906 154.191406 392.488281 154.246094 C 391.820312 154.265625 390.988281 154.324219 390.550781 154.722656 C 390.304688 154.945312 390.550781 155.988281 390.851562 156.496094 C 394.390625 162.4375 397.992188 168.339844 401.542969 174.277344 C 401.84375 174.785156 401.960938 175.4375 402.035156 176.039062 C 402.152344 176.96875 402.160156 177.910156 402.210938 178.851562 C 401.335938 178.15625 400.308594 177.585938 399.613281 176.742188 C 395.988281 172.347656 392.457031 167.875 388.859375 163.453125 C 388.535156 163.054688 387.96875 162.855469 387.515625 162.566406 C 387.429688 163.105469 387.277344 163.644531 387.277344 164.1875 C 387.253906 167.914062 387.335938 171.648438 387.242188 175.375 C 387.167969 178.121094 386.894531 180.867188 386.644531 183.609375 C 386.640625 183.679688 385.617188 183.855469 385.515625 183.695312 C 384.242188 181.6875 382.804688 179.730469 381.898438 177.554688 C 380.527344 174.261719 379.578125 170.789062 378.328125 167.4375 C 378.214844 167.140625 376.78125 166.921875 376.683594 167.09375 C 375.527344 169.0625 373.945312 171.015625 373.566406 173.167969 C 372.449219 179.515625 371.859375 185.960938 370.976562 192.355469 C 370.597656 195.125 369.941406 197.859375 369.546875 200.628906 C 369.324219 202.191406 370.136719 202.996094 371.78125 203.046875 C 375.496094 203.160156 379.230469 203.152344 382.910156 203.574219 C 387.871094 204.144531 392.789062 205.070312 397.726562 205.855469 C 401.039062 206.382812 404.355469 206.875 407.652344 207.484375 C 411.761719 208.246094 415.894531 208.933594 419.933594 209.980469 C 426.289062 211.632812 432.648438 213.34375 438.871094 215.441406 C 442.847656 216.785156 446.671875 218.449219 449.988281 221.449219 C 453.972656 225.054688 456.84375 229.371094 459.539062 233.8125 C 461.648438 237.289062 461.585938 241.394531 461.027344 245.375 C 460.707031 247.675781 460.074219 249.933594 459.75 252.234375 C 459.207031 256.074219 458.734375 259.910156 456.28125 263.140625 C 455.246094 264.507812 454.679688 265.855469 455.195312 267.773438 C 455.652344 269.460938 455.292969 271.367188 455.292969 273.175781 C 455.292969 279.425781 455.339844 285.675781 455.269531 291.925781 C 455.242188 294.574219 454.972656 297.21875 454.796875 299.863281 C 454.683594 301.570312 455.246094 301.714844 456.886719 301.296875 C 460.785156 300.308594 464.828125 300.0625 468.640625 301.574219 C 475.179688 304.164062 480.875 308.265625 486.140625 312.789062 C 489.917969 316.03125 492.339844 320.414062 493.808594 325.351562 C 495.539062 331.179688 496.6875 337.117188 496.085938 343.089844 C 495.453125 349.371094 493.761719 355.488281 489.515625 360.582031 C 488.597656 361.6875 488.035156 363.34375 487.894531 364.800781 C 487.53125 368.496094 487.34375 372.226562 487.367188 375.9375 C 487.40625 382.367188 487.089844 388.882812 488.019531 395.199219 C 488.964844 401.582031 487.46875 402.96875 491.089844 405.414062 C 492.535156 406.394531 502.671875 410.242188 510.058594 414.84375 Z M 489.269531 419.78125 C 489.28125 422.753906 489.058594 425.738281 488.792969 428.703125 C 488.464844 432.382812 485.179688 433.515625 482.660156 434.875 C 475.464844 438.753906 467.773438 441.453125 459.808594 443.367188 C 454.742188 444.585938 449.765625 446.21875 444.664062 447.230469 C 439.738281 448.203125 434.695312 448.535156 429.722656 449.292969 C 425.191406 449.984375 420.699219 450.964844 416.164062 451.632812 C 413.558594 452.019531 410.90625 452.09375 408.269531 452.21875 C 403.984375 452.425781 399.695312 452.589844 395.410156 452.71875 C 384.042969 453.066406 372.679688 453.597656 361.3125 453.640625 C 352.90625 453.675781 344.496094 453.0625 336.085938 452.722656 C 332.621094 452.582031 329.152344 452.445312 325.691406 452.222656 C 318.664062 451.761719 311.640625 451.253906 304.617188 450.746094 C 302.792969 450.617188 300.964844 450.476562 299.152344 450.25 C 292.753906 449.453125 286.359375 448.597656 279.960938 447.800781 C 278.144531 447.574219 276.3125 447.503906 274.496094 447.289062 C 270.589844 446.824219 266.679688 446.371094 262.789062 445.796875 C 259.949219 445.375 257.101562 444.921875 254.324219 444.207031 C 249.144531 442.875 243.976562 441.460938 238.875 439.859375 C 234.597656 438.519531 230.320312 437.09375 226.234375 435.273438 C 222.6875 433.691406 219.476562 431.375 215.996094 429.628906 C 213.363281 428.308594 212.953125 425.898438 212.824219 423.574219 C 212.308594 414.296875 212.910156 410.9375 211.101562 410.199219 C 210.121094 409.796875 201.667969 413.59375 198.511719 415.261719 C 194.519531 417.378906 190.742188 419.734375 187.84375 423.480469 C 185.285156 426.792969 186.074219 432.011719 188.726562 434.796875 C 192.101562 438.339844 196.109375 441 200.65625 442.871094 C 205.289062 444.78125 209.765625 447.136719 214.507812 448.683594 C 219.75 450.394531 225.207031 451.46875 230.59375 452.710938 C 236.605469 454.09375 242.617188 455.523438 248.683594 456.621094 C 253.707031 457.53125 258.816406 457.9375 263.875 458.660156 C 269.214844 459.421875 274.527344 460.347656 279.867188 461.089844 C 282.160156 461.40625 284.492188 461.429688 286.808594 461.609375 C 290.945312 461.929688 295.074219 462.371094 299.214844 462.570312 C 304.8125 462.835938 310.453125 462.582031 316.011719 463.152344 C 335.578125 465.144531 355.183594 463.628906 374.761719 464.007812 C 380.535156 464.117188 386.324219 463.46875 392.097656 463.074219 C 398.46875 462.640625 404.839844 462.160156 411.203125 461.59375 C 417.753906 461.007812 424.3125 460.417969 430.839844 459.597656 C 437.433594 458.769531 444.015625 457.785156 450.5625 456.640625 C 458.273438 455.296875 466.082031 454.214844 473.589844 452.109375 C 483.246094 449.402344 492.757812 446.070312 502.113281 442.449219 C 506.578125 440.722656 510.746094 437.988281 513.976562 434.195312 C 517.160156 430.464844 517.476562 426.246094 513.988281 422.394531 C 512.671875 420.9375 508.808594 416.675781 492.976562 409.714844 C 487.132812 407.144531 489.238281 412.816406 489.269531 419.78125 Z M 333.53125 213.148438 C 333.449219 211.492188 333.199219 210.964844 331.433594 212.15625 C 329.394531 213.535156 327.042969 214.652344 324.671875 215.28125 C 321.941406 216.003906 321.292969 216.421875 321.679688 218.824219 C 321.855469 219.925781 321.808594 221.066406 321.859375 222.1875 C 322.789062 221.726562 323.683594 221.167969 324.652344 220.816406 C 326.644531 220.09375 328.679688 219.496094 330.6875 218.816406 C 332.253906 218.285156 333.101562 217.230469 333.054688 215.5 C 333.039062 214.800781 333.203125 214.09375 333.53125 213.148438 Z M 326.382812 225.238281 C 327.050781 225.070312 327.761719 225.003906 328.375 224.722656 C 329.75 224.089844 331.125 223.425781 332.386719 222.601562 C 332.773438 222.351562 332.789062 221.535156 332.972656 220.976562 C 332.414062 221.085938 331.832031 221.132812 331.300781 221.316406 C 329.519531 221.9375 327.746094 222.589844 325.988281 223.269531 C 325.195312 223.574219 324.441406 223.972656 323.671875 224.328125 C 324.414062 224.628906 325.152344 224.933594 326.382812 225.238281 Z M 419.554688 308.632812 C 415.980469 309.125 412.414062 309.691406 408.828125 310.09375 C 405.113281 310.511719 401.378906 310.769531 397.65625 311.101562 C 390.289062 311.757812 382.9375 312.730469 375.554688 313.007812 C 359.96875 313.597656 344.40625 312.699219 328.859375 311.597656 C 326.300781 311.414062 323.722656 311.402344 321.183594 311.074219 C 315.515625 310.339844 309.875 309.417969 304.210938 308.644531 C 298.988281 307.933594 293.691406 307.617188 288.535156 306.589844 C 280.851562 305.050781 273.234375 303.15625 265.644531 301.191406 C 260.777344 299.929688 255.96875 298.40625 251.226562 296.738281 C 248.441406 295.761719 247.773438 296.015625 247.761719 299.078125 C 247.746094 304.257812 247.878906 309.441406 247.71875 314.617188 C 247.597656 318.414062 248.816406 319.296875 252.109375 320.496094 C 262.410156 324.253906 273.15625 326.214844 283.851562 328.316406 C 290.445312 329.609375 297.132812 330.46875 303.808594 331.292969 C 309.332031 331.976562 314.886719 332.460938 320.441406 332.773438 C 326.445312 333.109375 332.460938 333.164062 338.472656 333.296875 C 341.179688 333.355469 343.894531 333.195312 346.597656 333.339844 C 350.902344 333.566406 355.199219 334.203125 359.5 334.222656 C 363.222656 334.238281 366.941406 333.449219 370.671875 333.34375 C 378.621094 333.121094 386.5625 333.503906 394.472656 331.921875 C 400.183594 330.777344 406.09375 330.699219 411.863281 329.796875 C 417.199219 328.960938 422.515625 327.867188 427.75 326.519531 C 434.84375 324.691406 441.878906 322.59375 448.867188 320.382812 C 449.894531 320.058594 451.1875 318.511719 451.234375 317.472656 C 451.484375 312.390625 451.378906 307.285156 451.324219 302.1875 C 451.3125 301.140625 451.089844 300.175781 449.582031 301.191406 C 448.535156 301.898438 447.269531 302.40625 446.027344 302.679688 C 437.292969 304.628906 428.546875 306.496094 419.554688 308.632812 Z M 372.230469 467.53125 C 356.527344 467.367188 340.824219 467.273438 325.121094 467 C 319.667969 466.902344 314.238281 467.390625 308.742188 466.207031 C 304.375 465.265625 299.707031 465.792969 295.179688 465.535156 C 291.367188 465.316406 287.566406 464.894531 283.757812 464.570312 C 281.695312 464.394531 279.613281 464.34375 277.566406 464.035156 C 272.636719 463.289062 267.734375 462.367188 262.804688 461.625 C 258.914062 461.042969 254.976562 460.769531 251.105469 460.089844 C 246.394531 459.261719 241.710938 458.246094 237.050781 457.148438 C 229.878906 455.457031 222.648438 453.921875 215.617188 451.761719 C 210.050781 450.054688 204.75 447.484375 199.308594 445.34375 C 198.507812 445.03125 197.59375 445 196.730469 444.839844 C 197.367188 445.492188 197.90625 446.304688 198.65625 446.78125 C 205.589844 451.167969 213.144531 454.171875 220.914062 456.703125 C 225.324219 458.140625 229.667969 459.820312 234.128906 461.070312 C 239.527344 462.578125 245.015625 463.765625 250.472656 465.058594 C 254.066406 465.910156 257.660156 466.792969 261.285156 467.507812 C 265.027344 468.242188 268.800781 468.820312 272.570312 469.414062 C 276.128906 469.976562 279.691406 470.496094 283.261719 470.964844 C 284.3125 471.101562 285.414062 470.855469 286.457031 471.011719 C 291.628906 471.785156 296.773438 472.761719 301.957031 473.417969 C 307.152344 474.074219 312.378906 474.546875 317.605469 474.90625 C 326.019531 475.492188 334.445312 476.339844 342.863281 476.324219 C 359.648438 476.292969 376.453125 477.171875 393.222656 475.480469 C 398.375 474.960938 403.597656 475.175781 408.78125 474.902344 C 412.019531 474.734375 415.253906 474.339844 418.476562 473.929688 C 423.21875 473.332031 427.953125 472.613281 432.691406 471.976562 C 436.507812 471.460938 440.363281 471.144531 444.144531 470.453125 C 449.613281 469.449219 455.0625 468.324219 460.457031 467.003906 C 468.269531 465.097656 476.195312 463.445312 483.765625 460.796875 C 490.90625 458.300781 497.796875 454.949219 504.511719 451.429688 C 510.101562 448.503906 514.792969 444.3125 517.3125 438.230469 C 517.5 437.78125 517.386719 437.210938 517.414062 436.699219 C 516.738281 436.875 515.761719 436.828125 515.429688 437.265625 C 512.210938 441.5 507.613281 443.898438 503.027344 445.992188 C 497.242188 448.636719 491.152344 450.660156 485.105469 452.679688 C 480.472656 454.230469 475.730469 455.507812 470.972656 456.625 C 467.191406 457.519531 463.308594 457.945312 459.484375 458.660156 C 454.460938 459.601562 449.480469 460.773438 444.433594 461.5625 C 439.910156 462.273438 435.3125 462.523438 430.765625 463.109375 C 424.9375 463.855469 419.144531 465.078125 413.296875 465.464844 C 406.839844 465.890625 400.394531 466.128906 393.9375 466.886719 C 386.9375 467.710938 379.800781 467.367188 372.230469 467.53125 Z M 320.960938 189.707031 C 320.878906 191.152344 320.742188 192.597656 320.769531 194.039062 C 320.773438 194.277344 321.625 194.792969 321.835938 194.6875 C 324.6875 193.246094 327.503906 191.726562 330.320312 190.203125 C 331.984375 189.304688 332.757812 186.199219 331.734375 184.695312 C 331.007812 183.625 330.3125 184.144531 329.488281 184.597656 C 327.488281 185.699219 325.417969 186.664062 323.421875 187.769531 C 322.617188 188.214844 321.941406 188.890625 320.960938 189.707031 Z M 272.160156 271.128906 C 269.597656 271.886719 267.074219 273.054688 264.464844 273.304688 C 259.789062 273.75 254.839844 274.820312 250.960938 270.683594 C 250.398438 270.085938 249.496094 269.816406 248.75 269.398438 C 248.746094 270.164062 248.746094 270.933594 248.742188 271.699219 C 248.742188 272.109375 248.742188 272.523438 248.742188 272.933594 C 248.742188 278.769531 248.808594 284.609375 248.707031 290.445312 C 248.675781 292.171875 249.367188 293.210938 250.820312 293.8125 C 252.574219 294.539062 254.332031 295.3125 256.164062 295.773438 C 261.609375 297.140625 267.070312 298.449219 272.558594 299.628906 C 277.109375 300.605469 281.695312 301.40625 286.28125 302.203125 C 290.433594 302.925781 294.613281 303.496094 298.765625 304.203125 C 303.363281 304.980469 307.925781 305.964844 312.539062 306.625 C 317.15625 307.28125 321.808594 307.769531 326.460938 308.113281 C 334.464844 308.703125 342.476562 309.433594 350.492188 309.550781 C 364.921875 309.765625 379.371094 310.011719 393.746094 308.15625 C 397.207031 307.710938 400.703125 307.511719 404.175781 307.140625 C 406.757812 306.867188 409.339844 306.566406 411.898438 306.148438 C 415.5 305.558594 419.082031 304.863281 422.667969 304.1875 C 426.472656 303.46875 430.308594 302.859375 434.070312 301.953125 C 438.601562 300.863281 443.039062 299.355469 447.582031 298.320312 C 450.945312 297.558594 451.347656 297.351562 451.347656 293.886719 C 451.347656 292.734375 451.203125 291.558594 451.375 290.433594 C 451.882812 287.179688 451.492188 286.9375 448.160156 287.851562 C 442.90625 289.292969 437.617188 290.625 432.308594 291.828125 C 426.730469 293.09375 421.132812 294.296875 415.496094 295.257812 C 411.984375 295.859375 408.386719 296 404.824219 296.261719 C 404.273438 296.300781 403.691406 295.859375 403.125 295.640625 C 403.625 295.203125 404.0625 294.527344 404.636719 294.371094 C 405.839844 294.046875 407.121094 294.019531 408.363281 293.824219 C 411.058594 293.398438 413.765625 293.035156 416.433594 292.484375 C 421.949219 291.34375 427.390625 289.773438 432.945312 288.980469 C 439.09375 288.101562 445.003906 286.523438 450.789062 284.390625 C 451.46875 284.136719 452.242188 283.027344 452.265625 282.289062 C 452.40625 278.101562 452.339844 273.90625 452.332031 269.710938 C 452.328125 268.257812 451.835938 267.953125 450.421875 268.613281 C 448.917969 269.320312 447.265625 269.925781 445.628906 270.085938 C 441.878906 270.460938 438.535156 268.871094 435.132812 267.53125 C 431.953125 266.273438 428.726562 264.789062 425.394531 264.332031 C 419.085938 263.46875 413.164062 265.261719 407.773438 268.632812 C 403.757812 271.140625 399.90625 273.679688 394.792969 273.679688 C 388.371094 273.679688 383.308594 270.46875 378.066406 267.566406 C 374.011719 265.324219 369.617188 263.1875 365.140625 263.898438 C 357.179688 265.164062 349.847656 268.515625 343.097656 273.082031 C 340.324219 274.960938 337.421875 277.113281 334.273438 277.863281 C 329.976562 278.890625 325.382812 278.625 320.925781 279.050781 C 318.375 279.296875 315.957031 278.679688 313.992188 277.359375 C 310.21875 274.8125 306.765625 271.796875 303.109375 269.070312 C 297.566406 264.933594 291.46875 262.253906 284.578125 264.820312 C 280.398438 266.378906 276.613281 268.992188 272.160156 271.128906 Z M 320.714844 198.835938 C 320.828125 199.117188 320.972656 199.386719 321.054688 199.675781 C 321.425781 200.957031 321.78125 202.242188 322.140625 203.523438 C 323.355469 202.902344 324.574219 202.296875 325.777344 201.660156 C 327.921875 200.519531 330.144531 199.496094 332.15625 198.160156 C 333.4375 197.304688 333.484375 194.292969 332.320312 193.238281 C 330.949219 192 330.199219 193.464844 329.273438 194.183594 C 328.746094 194.59375 328.082031 194.839844 327.46875 195.132812 C 325.21875 196.207031 322.96875 197.273438 320.714844 198.835938 Z M 329.835938 165.035156 C 327.144531 167.234375 324.472656 169.457031 321.757812 171.621094 C 320.296875 172.785156 319.019531 175.335938 320.269531 176.9375 C 320.546875 177.296875 321.570312 177.496094 321.96875 177.269531 C 323.441406 176.429688 324.777344 175.355469 326.195312 174.414062 C 330.542969 171.539062 331.601562 169.074219 329.835938 165.035156 Z M 330.574219 202.785156 C 328.824219 203.6875 327.15625 204.859375 325.308594 205.441406 C 321.238281 206.722656 321.203125 206.601562 321.207031 210.734375 C 321.207031 211.058594 321.175781 211.390625 321.214844 211.714844 C 321.363281 212.953125 321.410156 214.210938 323.148438 212.753906 C 323.925781 212.101562 325.042969 211.839844 326.011719 211.421875 C 332.199219 208.75 333.539062 208.484375 333.039062 203.480469 C 332.976562 202.855469 332.910156 202.226562 332.84375 201.601562 C 332.167969 201.914062 331.496094 202.226562 330.574219 202.785156 Z M 481.417969 415.964844 C 477.535156 417.6875 473.75 419.710938 469.746094 421.085938 C 458.515625 424.9375 447.195312 428.476562 435.460938 430.554688 C 428.15625 431.847656 420.957031 433.777344 413.625 434.875 C 406.566406 435.929688 399.410156 436.601562 392.277344 436.855469 C 382.898438 437.183594 373.5 437 364.109375 436.914062 C 355.550781 436.839844 346.996094 436.683594 338.441406 436.414062 C 332.332031 436.222656 326.230469 435.78125 320.125 435.457031 C 319.960938 435.445312 319.792969 435.46875 319.632812 435.453125 C 313.910156 434.796875 308.179688 434.171875 302.464844 433.46875 C 299.28125 433.074219 296.113281 432.542969 292.941406 432.078125 C 289.378906 431.554688 285.808594 431.082031 282.253906 430.507812 C 278.183594 429.855469 274.113281 429.171875 270.066406 428.402344 C 267.34375 427.882812 264.664062 427.160156 261.957031 426.578125 C 258.03125 425.730469 254.0625 425.054688 250.171875 424.074219 C 245.507812 422.894531 240.910156 421.460938 236.277344 420.160156 C 229.277344 418.191406 222.5 415.707031 216.371094 411.691406 C 215.996094 411.449219 215.5625 411.292969 215.15625 411.09375 C 215.011719 411.613281 214.734375 412.132812 214.753906 412.644531 C 214.875 416.195312 215.011719 419.746094 215.242188 423.292969 C 215.355469 425.027344 215.617188 426.804688 217.273438 427.859375 C 218.496094 428.640625 219.738281 429.433594 221.0625 430.003906 C 225.734375 432.015625 230.339844 434.25 235.160156 435.820312 C 241.695312 437.949219 248.359375 439.746094 255.058594 441.304688 C 259.460938 442.332031 264.03125 442.644531 268.511719 443.363281 C 273.273438 444.125 277.992188 445.222656 282.777344 445.765625 C 290.367188 446.621094 297.992188 447.160156 305.605469 447.78125 C 312.132812 448.316406 318.664062 448.8125 325.199219 449.257812 C 330.726562 449.640625 336.257812 449.988281 341.789062 450.242188 C 347.140625 450.484375 352.496094 450.746094 357.847656 450.71875 C 369.359375 450.660156 380.871094 450.421875 392.386719 450.257812 C 392.628906 450.253906 392.878906 450.28125 393.121094 450.253906 C 400.75 449.4375 408.378906 448.628906 416 447.785156 C 420.152344 447.324219 424.316406 446.941406 428.433594 446.257812 C 433.394531 445.433594 438.320312 444.390625 443.234375 443.335938 C 449.863281 441.914062 456.554688 440.691406 463.054688 438.820312 C 469.25 437.042969 475.285156 434.664062 481.292969 432.304688 C 484.800781 430.925781 487.296875 428.636719 486.402344 424.195312 C 486.066406 422.539062 486.347656 420.753906 486.347656 419.027344 C 486.347656 413.714844 486.347656 413.714844 481.417969 415.964844 Z M 322.441406 179.835938 C 320.980469 180.714844 319.875 183.546875 320.761719 184.957031 C 322.128906 187.136719 322.632812 184.21875 323.695312 184.277344 C 323.859375 184.285156 324.039062 184.324219 324.183594 184.269531 C 329.625 182.308594 331.6875 179.824219 331.554688 175.378906 C 331.539062 174.910156 331.4375 174.445312 331.375 173.976562 C 330.921875 174.226562 330.449219 174.445312 330.019531 174.726562 C 327.570312 176.339844 325.128906 177.96875 322.441406 179.835938 Z M 283.992188 238.066406 C 281.90625 237.738281 279.8125 237.46875 277.746094 237.066406 C 271.972656 235.949219 266.089844 235.183594 260.480469 233.5 C 255.761719 232.082031 251.335938 229.652344 247.914062 225.777344 C 247.566406 225.382812 245.875 225.550781 245.34375 226.039062 C 243.164062 228.058594 242.0625 230.765625 241.890625 233.679688 C 241.6875 237.148438 241.824219 240.640625 241.847656 244.121094 C 241.886719 250.980469 243.660156 257.445312 247.855469 262.808594 C 251.25 267.15625 254.933594 271.34375 261.804688 270.28125 C 267.582031 269.386719 272.824219 267.5625 277.699219 264.550781 C 283.476562 260.984375 289.824219 259.976562 296.035156 261.949219 C 300.304688 263.308594 304.390625 266.054688 307.820312 269.035156 C 313.273438 273.769531 319.019531 277.109375 326.390625 275.988281 C 330.363281 275.382812 334.363281 274.796875 337.992188 272.46875 C 342.933594 269.300781 348.101562 266.402344 353.425781 263.945312 C 356.855469 262.367188 360.6875 261.355469 364.441406 260.859375 C 371.617188 259.90625 377.625 263.457031 383.644531 266.734375 C 386.960938 268.535156 390.351562 270.082031 394.308594 270.207031 C 397.6875 270.3125 400.476562 268.835938 403.339844 267.558594 C 406.46875 266.167969 409.335938 264.148438 412.527344 262.960938 C 417.84375 260.976562 423.339844 260.308594 428.917969 262.222656 C 432.738281 263.535156 436.585938 264.773438 440.464844 265.882812 C 448.070312 268.0625 453.632812 262.894531 455.269531 256.242188 C 456.046875 253.09375 456.71875 249.902344 457.222656 246.699219 C 457.578125 244.417969 457.929688 242.035156 457.65625 239.777344 C 457.125 235.390625 454.632812 231.792969 452.144531 228.273438 C 450.34375 225.722656 448.570312 225.363281 445.722656 226.707031 C 444.214844 227.417969 442.703125 228.183594 441.113281 228.664062 C 434.902344 230.539062 428.683594 232.417969 422.410156 234.070312 C 419.339844 234.882812 416.128906 235.15625 412.996094 235.761719 C 409.28125 236.480469 405.613281 237.480469 401.871094 238.019531 C 397.09375 238.707031 392.269531 239.109375 387.460938 239.535156 C 379.519531 240.238281 371.578125 241.390625 363.632812 241.417969 C 342.476562 241.488281 321.289062 242.34375 300.175781 240.0625 C 297.140625 239.734375 294.054688 239.851562 291.023438 239.5 C 288.816406 239.246094 286.660156 238.558594 283.992188 238.066406 Z M 250.222656 254.84375 C 248.710938 250.742188 246.507812 247.128906 246.738281 242.710938 C 246.964844 238.308594 250.230469 236.261719 254.203125 238.03125 C 258.078125 239.761719 262.0625 241.265625 266.042969 242.742188 C 266.976562 243.089844 268.117188 242.851562 269.132812 243.035156 C 269.601562 243.121094 270.003906 243.578125 270.433594 243.863281 C 270.085938 244.234375 269.796875 244.820312 269.375 244.941406 C 265.351562 246.105469 261.460938 245.527344 257.714844 243.816406 C 256.261719 243.152344 254.894531 242.300781 253.46875 241.570312 C 251.878906 240.757812 250.46875 241.457031 250.789062 243.191406 C 251.550781 247.34375 252.679688 251.429688 253.683594 255.539062 C 253.804688 256.027344 254.082031 256.476562 254.285156 256.949219 C 253.617188 257.015625 252.792969 257.359375 252.316406 257.089844 C 251.503906 256.625 250.910156 255.777344 250.222656 254.84375 Z M 444.816406 250.773438 C 447.921875 248.085938 447.941406 244.800781 446.695312 241.605469 C 446.453125 240.984375 445.730469 240.535156 445.191406 240.046875 C 444.8125 239.703125 444.367188 239.429688 443.953125 239.125 C 444.34375 238.628906 444.746094 237.703125 445.121094 237.714844 C 446.402344 237.757812 448.039062 237.710938 448.886719 238.453125 C 452.964844 242.015625 453.148438 249.378906 449.046875 252.84375 C 444.730469 256.484375 439.695312 258.25 433.859375 256.867188 C 429.046875 255.726562 424.203125 254.25 419.320312 254.023438 C 414.339844 253.792969 409.132812 254.316406 405.019531 258.003906 C 404.828125 258.175781 404.097656 258.128906 404.066406 258.03125 C 403.925781 257.613281 403.742188 256.898438 403.945312 256.722656 C 405.300781 255.539062 406.585938 254.03125 408.195312 253.4375 C 415.324219 250.804688 422.5 250.941406 429.9375 252.71875 C 434.816406 253.886719 440.160156 254.554688 444.816406 250.773438 Z M 320.714844 167.746094 C 320.886719 168.410156 321.058594 169.078125 321.230469 169.742188 C 321.75 169.371094 322.300781 169.035156 322.785156 168.621094 C 324.183594 167.441406 325.5625 166.234375 326.941406 165.03125 C 327.28125 164.734375 327.605469 164.421875 327.9375 164.117188 C 327.441406 163.929688 326.957031 163.613281 326.453125 163.574219 C 324.1875 163.390625 321.722656 165.007812 320.714844 167.746094 Z M 356.453125 206.484375 C 350.707031 206.484375 344.957031 206.53125 339.207031 206.457031 C 337.230469 206.433594 336.425781 207.179688 336.464844 209.171875 C 336.546875 213.035156 336.511719 216.902344 336.480469 220.765625 C 336.464844 223.105469 334.238281 226.894531 332.351562 227.070312 C 329.074219 227.375 325.617188 227.769531 322.484375 227.042969 C 319.488281 226.347656 318.027344 224.5 318.207031 221.390625 C 318.402344 217.949219 318.082031 214.476562 318.304688 211.035156 C 318.484375 208.246094 317.589844 207.242188 314.683594 207.507812 C 310.933594 207.851562 307.207031 208.472656 303.46875 208.949219 C 298.15625 209.621094 292.742188 209.824219 287.554688 211.027344 C 279.222656 212.953125 270.996094 215.386719 262.8125 217.894531 C 258.546875 219.199219 254.460938 221.109375 250.304688 222.773438 C 248.761719 223.394531 248.742188 224.359375 250.039062 225.214844 C 252.152344 226.609375 254.242188 228.128906 256.542969 229.132812 C 261.917969 231.46875 267.4375 233.203125 273.398438 233.730469 C 279.027344 234.226562 284.550781 235.867188 290.175781 236.515625 C 297 237.300781 303.882812 237.609375 310.746094 238.050781 C 314.613281 238.300781 318.492188 238.554688 322.363281 238.527344 C 334.125 238.449219 345.890625 237.898438 357.636719 238.171875 C 366.875 238.386719 375.9375 236.8125 385.113281 236.546875 C 388.351562 236.453125 391.578125 235.945312 394.804688 235.589844 C 396.203125 235.433594 397.597656 235.226562 398.980469 234.960938 C 402.015625 234.378906 405.042969 233.746094 408.074219 233.132812 C 413.078125 232.117188 418.148438 231.363281 423.0625 230.035156 C 430.640625 227.984375 438.113281 225.542969 445.625 223.25 C 446.054688 223.121094 446.433594 222.820312 446.832031 222.601562 C 446.503906 222.328125 446.21875 221.953125 445.84375 221.796875 C 443.878906 220.988281 441.921875 220.136719 439.90625 219.480469 C 435.480469 218.050781 431.050781 216.628906 426.570312 215.394531 C 421.984375 214.132812 417.347656 213.019531 412.703125 211.992188 C 408.394531 211.039062 404.066406 210.132812 399.703125 209.488281 C 395.089844 208.804688 390.429688 208.441406 385.785156 207.96875 C 380.734375 207.457031 375.6875 206.902344 370.625 206.574219 C 369.96875 206.53125 368.722656 207.621094 368.613281 208.324219 C 367.804688 213.457031 367.25 218.625 366.527344 223.769531 C 366.394531 224.722656 366.03125 225.765625 365.441406 226.488281 C 365.042969 226.972656 363.820312 227.351562 363.382812 227.089844 C 362.761719 226.714844 362.101562 225.648438 362.195312 224.976562 C 362.703125 221.285156 363.457031 217.625 364.085938 213.945312 C 364.3125 212.625 364.199219 211.207031 364.636719 209.976562 C 365.453125 207.683594 364.863281 206.578125 362.367188 206.496094 C 360.5625 206.433594 358.753906 206.484375 356.453125 206.484375 Z M 335.996094 142.085938 C 333.910156 136.210938 331.785156 130.351562 329.765625 124.457031 C 329.339844 123.21875 329.402344 121.820312 329.050781 120.550781 C 328.902344 120.011719 328.261719 119.605469 327.84375 119.140625 C 327.605469 119.605469 327.316406 120.050781 327.132812 120.539062 C 326.378906 122.527344 325.882812 124.652344 324.875 126.503906 C 322.28125 131.277344 319.542969 135.980469 316.71875 140.628906 C 312.601562 147.402344 317.679688 157.4375 322.578125 161.652344 C 322.714844 161.765625 323.632812 161.3125 323.617188 161.207031 C 323.519531 160.535156 323.304688 159.871094 323.050781 159.238281 C 321.769531 156.011719 321.738281 152.90625 323.371094 149.71875 C 324.367188 147.773438 324.84375 145.570312 325.679688 143.53125 C 325.945312 142.882812 326.621094 142.398438 327.109375 141.839844 C 327.609375 142.390625 328.378906 142.867188 328.550781 143.503906 C 329.027344 145.300781 329.371094 147.152344 329.5625 149.003906 C 329.910156 152.316406 330.664062 155.679688 328.699219 158.832031 C 328.390625 159.328125 328.621094 160.164062 328.605469 160.839844 C 329.65625 160.769531 330.753906 160.847656 331.746094 160.566406 C 332.203125 160.4375 332.457031 159.605469 332.808594 159.09375 C 336.289062 154.054688 337.410156 148.5625 335.996094 142.085938 Z M 446.789062 347.496094 C 443.234375 348.75 440.839844 351.074219 438.988281 354.113281 C 438.570312 354.800781 437.699219 355.207031 437.035156 355.742188 C 437.007812 354.792969 436.636719 353.679688 437.007812 352.925781 C 439.519531 347.792969 443.96875 345.167969 449.289062 343.644531 C 453.367188 342.476562 457.269531 343.578125 461.144531 344.421875 C 464.550781 345.164062 467.839844 346.453125 471.1875 347.488281 C 475.328125 348.773438 478.136719 347.082031 478.925781 342.675781 C 479.261719 340.804688 479.519531 338.851562 479.355469 336.976562 C 479.257812 335.878906 478.300781 334.828125 477.640625 333.8125 C 477.382812 333.414062 476.878906 333.171875 476.488281 332.859375 C 477.027344 332.515625 477.539062 331.929688 478.109375 331.867188 C 481.15625 331.539062 482.585938 332.335938 483.347656 335.238281 C 484.496094 339.628906 484.371094 343.988281 481.800781 347.957031 C 479.933594 350.839844 474.992188 352.023438 470.9375 350.703125 C 466.597656 349.289062 462.246094 347.90625 457.894531 346.523438 C 454.125 345.332031 450.4375 345.3125 446.789062 347.496094 Z M 297.03125 415.199219 C 294.039062 414.949219 291.0625 414.574219 288.082031 414.234375 C 282.363281 413.582031 276.648438 412.898438 270.929688 412.269531 C 267.542969 411.898438 264.144531 411.617188 260.753906 411.269531 C 258.554688 411.046875 256.363281 410.78125 254.042969 410.410156 C 248.996094 409.300781 244.050781 408.398438 239.152344 407.292969 C 227.644531 404.691406 227.535156 403.097656 227.464844 402.074219 C 227.367188 400.660156 233.296875 403.027344 243.003906 405.34375 C 246 406.054688 249.007812 406.753906 252.035156 407.300781 C 255.339844 407.898438 258.675781 408.355469 262.003906 408.796875 C 266.0625 409.335938 270.128906 409.785156 274.191406 410.289062 C 279.417969 410.9375 284.636719 411.664062 289.871094 412.242188 C 302.855469 413.679688 304.429688 412.6875 307.730469 413.480469 C 307.015625 413.972656 304.359375 415.808594 297.03125 415.199219 Z M 414.316406 413.195312 C 420.390625 412.585938 426.417969 411.554688 432.480469 410.804688 C 432.652344 410.78125 441.890625 409.964844 443.964844 410.601562 C 443.402344 410.941406 440.558594 412.65625 436.234375 413.222656 C 433.101562 413.632812 429.953125 413.910156 426.8125 414.234375 C 420.363281 414.894531 413.917969 415.570312 407.464844 416.191406 C 399.136719 416.996094 395.699219 415.382812 394.777344 414.949219 C 401.996094 412.84375 405.304688 414.09375 414.316406 413.195312 Z M 223.726562 344.777344 C 226.007812 344.328125 228.15625 343.921875 230.324219 343.722656 C 230.84375 343.675781 231.429688 344.320312 231.984375 344.648438 C 231.515625 344.980469 231.085938 345.394531 230.570312 345.628906 C 227.746094 346.914062 224.980469 348.382812 222.046875 349.351562 C 217.03125 351.011719 212.023438 348.734375 210.296875 343.757812 C 209.640625 341.863281 210.214844 339.46875 210.566406 337.359375 C 210.644531 336.875 212.121094 336.625 212.957031 336.269531 C 213.054688 336.980469 213.394531 337.765625 213.210938 338.402344 C 211.945312 342.882812 215.835938 346.679688 220.714844 345.636719 C 221.6875 345.429688 222.640625 345.148438 223.726562 344.777344 Z M 223.726562 344.777344 " fill-opacity="1" fill-rule="evenodd"/></g></svg>