<svg xmlns="http://www.w3.org/2000/svg" xmlns:xlink="http://www.w3.org/1999/xlink" width="940" zoomAndPan="magnify" viewBox="0 0 705.12 472.50001" height="788" preserveAspectRatio="xMidYMid meet" version="1.0"><path fill="#000000" d="M 380.503906 151.808594 C 376.433594 147.734375 369.808594 147.734375 365.738281 151.808594 C 361.652344 155.890625 361.652344 162.492188 365.738281 166.574219 L 480.351562 281.191406 C 484.425781 285.261719 491.050781 285.261719 495.121094 281.191406 C 499.207031 277.105469 499.207031 270.507812 495.121094 266.421875 C 491.289062 262.589844 387.972656 159.273438 380.503906 151.808594 Z M 380.503906 151.808594 " fill-opacity="1" fill-rule="nonzero"/><path fill="#000000" d="M 345.972656 239.984375 L 219.554688 385.132812 C 208.121094 398.25 210.328125 418.578125 224.367188 428.898438 C 235.464844 437.066406 251.125 436.667969 261.792969 427.375 L 406.941406 300.957031 C 377.378906 292.71875 354.25 269.691406 345.972656 239.984375 Z M 345.972656 239.984375 " fill-opacity="1" fill-rule="nonzero"/><path fill="#000000" d="M 205.113281 427.046875 L 196.828125 435.332031 C 192.757812 439.402344 192.757812 446.027344 196.828125 450.097656 C 200.902344 454.171875 207.527344 454.171875 211.597656 450.097656 L 219.882812 441.816406 C 213.761719 438.140625 208.601562 432.859375 205.113281 427.046875 Z M 205.113281 427.046875 " fill-opacity="1" fill-rule="nonzero"/><path fill="#000000" d="M 363.777344 183.339844 C 353.996094 203.03125 353.101562 227.464844 363.597656 249.125 C 370.953125 264.050781 383.523438 276.855469 399.863281 284.296875 C 419.9375 293.273438 443.472656 293.140625 463.589844 283.152344 C 458.054688 277.617188 369.328125 188.890625 363.777344 183.339844 Z M 363.777344 183.339844 " fill-opacity="1" fill-rule="nonzero"/><path fill="#000000" d="M 397.269531 149.847656 L 497.082031 249.660156 C 511.089844 221.460938 505.738281 186.554688 483.054688 163.871094 C 460.375 141.1875 425.464844 135.839844 397.269531 149.847656 Z M 397.269531 149.847656 " fill-opacity="1" fill-rule="nonzero"/><path fill="#000000" d="M 213.625 260.816406 C 202.675781 260.816406 193.769531 251.910156 193.769531 240.960938 C 193.769531 230.011719 202.675781 221.101562 213.625 221.101562 C 224.574219 221.101562 233.480469 230.011719 233.480469 240.960938 C 233.480469 251.910156 224.574219 260.816406 213.625 260.816406 Z M 213.625 260.816406 " fill-opacity="1" fill-rule="nonzero"/><path fill="#000000" d="M 279.8125 247.976562 C 268.863281 247.976562 259.957031 239.066406 259.957031 228.117188 C 259.957031 217.167969 268.863281 208.261719 279.8125 208.261719 C 290.761719 208.261719 299.671875 217.167969 299.671875 228.117188 C 299.671875 239.066406 290.761719 247.976562 279.8125 247.976562 Z M 279.8125 247.976562 " fill-opacity="1" fill-rule="nonzero"/><path fill="#000000" d="M 226.863281 247.578125 C 223.207031 247.578125 220.242188 244.617188 220.242188 240.960938 L 220.242188 175.167969 C 220.242188 172.460938 221.890625 170.027344 224.40625 169.019531 L 290.59375 142.546875 C 294.941406 140.804688 299.671875 144.015625 299.671875 148.691406 L 299.671875 228.117188 C 299.671875 231.773438 296.707031 234.738281 293.050781 234.738281 C 289.394531 234.738281 286.433594 231.773438 286.433594 228.117188 L 286.433594 158.46875 L 233.480469 179.648438 L 233.480469 240.960938 C 233.480469 244.617188 230.519531 247.578125 226.863281 247.578125 Z M 226.863281 247.578125 " fill-opacity="1" fill-rule="nonzero"/><path fill="#000000" d="M 418.8125 453.160156 C 407.863281 453.160156 398.953125 444.253906 398.953125 433.304688 C 398.953125 422.355469 407.859375 413.445312 418.8125 413.445312 C 429.757812 413.445312 438.667969 422.355469 438.667969 433.304688 C 438.667969 444.253906 429.757812 453.160156 418.8125 453.160156 Z M 418.8125 453.160156 " fill-opacity="1" fill-rule="nonzero"/><path fill="#000000" d="M 485 440.316406 C 474.050781 440.316406 465.140625 431.410156 465.140625 420.460938 C 465.140625 409.511719 474.050781 400.605469 485 400.605469 C 495.949219 400.605469 504.855469 409.511719 504.855469 420.460938 C 504.855469 431.410156 495.949219 440.316406 485 440.316406 Z M 485 440.316406 " fill-opacity="1" fill-rule="nonzero"/><path fill="#000000" d="M 432.046875 439.921875 C 428.394531 439.921875 425.429688 436.957031 425.429688 433.304688 L 425.429688 367.511719 C 425.429688 364.804688 427.078125 362.371094 429.589844 361.363281 L 495.78125 334.890625 C 500.117188 333.152344 504.855469 336.351562 504.855469 341.035156 L 504.855469 420.460938 C 504.855469 424.117188 501.894531 427.082031 498.238281 427.082031 C 494.582031 427.082031 491.617188 424.117188 491.617188 420.460938 L 491.617188 350.8125 L 438.667969 371.992188 L 438.667969 433.304688 C 438.667969 436.957031 435.703125 439.921875 432.046875 439.921875 Z M 432.046875 439.921875 " fill-opacity="1" fill-rule="nonzero"/></svg>