<svg xmlns="http://www.w3.org/2000/svg" xmlns:xlink="http://www.w3.org/1999/xlink" width="940" zoomAndPan="magnify" viewBox="0 0 705.12 472.50001" height="788" preserveAspectRatio="xMidYMid meet" version="1.0"><defs><clipPath id="b8ed80c3b0"><path d="M 177 111.5625 L 527 111.5625 L 527 471.957031 L 177 471.957031 Z M 177 111.5625 " clip-rule="nonzero"/></clipPath></defs><g clip-path="url(#b8ed80c3b0)"><path fill="#000000" d="M 525.820312 284 C 523.582031 274.839844 520.339844 266.046875 516.085938 257.625 C 511.832031 249.207031 506.679688 241.375 500.632812 234.136719 C 501.894531 222.035156 491.761719 210.433594 478.226562 211.902344 L 425.582031 217.625 C 415.480469 209.21875 404.265625 202.730469 391.941406 198.160156 L 370.609375 149.832031 C 370.035156 148.5 369.324219 147.246094 368.476562 146.074219 C 367.628906 144.898438 366.667969 143.828125 365.585938 142.859375 C 364.507812 141.894531 363.335938 141.054688 362.074219 140.34375 C 360.8125 139.628906 359.488281 139.0625 358.101562 138.636719 L 358.101562 117.609375 C 358.101562 117.214844 358.0625 116.820312 357.988281 116.429688 C 357.910156 116.042969 357.792969 115.664062 357.640625 115.296875 C 357.488281 114.929688 357.304688 114.578125 357.082031 114.25 C 356.863281 113.917969 356.609375 113.613281 356.328125 113.332031 C 356.046875 113.050781 355.742188 112.800781 355.414062 112.582031 C 355.082031 112.359375 354.734375 112.171875 354.367188 112.019531 C 354 111.871094 353.621094 111.753906 353.230469 111.675781 C 352.839844 111.597656 352.445312 111.5625 352.050781 111.5625 C 351.652344 111.5625 351.257812 111.597656 350.867188 111.675781 C 350.476562 111.753906 350.101562 111.871094 349.734375 112.019531 C 349.367188 112.171875 349.015625 112.359375 348.6875 112.582031 C 348.355469 112.800781 348.050781 113.050781 347.769531 113.332031 C 347.488281 113.613281 347.238281 113.917969 347.015625 114.25 C 346.796875 114.578125 346.609375 114.929688 346.457031 115.296875 C 346.304688 115.664062 346.191406 116.042969 346.113281 116.429688 C 346.035156 116.820312 345.996094 117.214844 345.996094 117.609375 L 345.996094 138.636719 C 344.609375 139.0625 343.285156 139.628906 342.023438 140.34375 C 340.761719 141.054688 339.589844 141.894531 338.511719 142.859375 C 337.429688 143.828125 336.46875 144.898438 335.621094 146.074219 C 334.773438 147.246094 334.0625 148.5 333.488281 149.832031 L 312.15625 198.191406 C 299.832031 202.761719 288.617188 209.25 278.515625 217.65625 L 225.871094 211.933594 C 225.121094 211.851562 224.371094 211.808594 223.617188 211.8125 C 222.863281 211.816406 222.109375 211.859375 221.359375 211.945312 C 220.613281 212.03125 219.871094 212.15625 219.132812 212.324219 C 218.398438 212.492188 217.675781 212.703125 216.964844 212.953125 C 216.25 213.199219 215.554688 213.488281 214.875 213.816406 C 214.195312 214.140625 213.535156 214.503906 212.898438 214.90625 C 212.257812 215.304688 211.644531 215.738281 211.050781 216.207031 C 210.460938 216.675781 209.898438 217.175781 209.363281 217.707031 C 208.828125 218.238281 208.324219 218.796875 207.851562 219.382812 C 207.378906 219.972656 206.9375 220.582031 206.535156 221.21875 C 206.128906 221.855469 205.761719 222.511719 205.429688 223.191406 C 205.097656 223.867188 204.804688 224.5625 204.550781 225.269531 C 204.296875 225.980469 204.082031 226.703125 203.910156 227.433594 C 203.734375 228.167969 203.601562 228.910156 203.511719 229.660156 C 203.421875 230.40625 203.371094 231.15625 203.363281 231.910156 C 203.355469 232.664062 203.390625 233.417969 203.46875 234.167969 C 197.421875 241.402344 192.269531 249.226562 188.015625 257.640625 C 183.761719 266.058594 180.515625 274.84375 178.277344 284 C 178.089844 284.804688 177.941406 285.617188 177.835938 286.433594 C 177.730469 287.253906 177.664062 288.074219 177.640625 288.898438 C 177.617188 289.722656 177.636719 290.546875 177.695312 291.371094 C 177.753906 292.195312 177.855469 293.011719 177.996094 293.824219 C 178.136719 294.636719 178.320312 295.441406 178.542969 296.238281 C 178.765625 297.03125 179.027344 297.8125 179.328125 298.582031 C 179.628906 299.347656 179.96875 300.101562 180.34375 300.835938 C 180.722656 301.570312 181.136719 302.28125 181.582031 302.976562 C 182.03125 303.667969 182.515625 304.335938 183.03125 304.980469 C 183.546875 305.625 184.09375 306.242188 184.671875 306.832031 C 185.25 307.417969 185.855469 307.980469 186.492188 308.507812 C 187.125 309.035156 187.785156 309.53125 188.46875 309.992188 C 189.152344 310.453125 189.859375 310.878906 190.585938 311.269531 C 191.3125 311.660156 192.058594 312.015625 192.820312 312.332031 C 193.582031 312.648438 194.359375 312.925781 195.148438 313.164062 C 195.941406 313.398438 196.742188 313.597656 197.550781 313.753906 C 198.363281 313.914062 199.175781 314.027344 200 314.105469 C 200.820312 314.179688 201.644531 314.214844 202.472656 314.207031 C 203.296875 314.199219 204.121094 314.148438 204.941406 314.058594 C 205.761719 313.96875 206.574219 313.835938 207.382812 313.664062 C 208.191406 313.492188 208.988281 313.28125 209.773438 313.027344 C 210.558594 312.777344 211.332031 312.484375 212.085938 312.15625 C 212.84375 311.824219 213.582031 311.457031 214.300781 311.054688 C 215.023438 310.648438 215.71875 310.210938 216.394531 309.734375 C 217.070312 309.261719 217.722656 308.753906 218.34375 308.214844 C 218.96875 307.675781 219.566406 307.105469 220.132812 306.503906 C 220.699219 305.90625 221.234375 305.277344 221.738281 304.625 C 222.242188 303.972656 222.714844 303.296875 223.148438 302.59375 C 223.585938 301.894531 223.984375 301.171875 224.347656 300.429688 C 224.710938 299.691406 225.039062 298.933594 225.324219 298.160156 C 225.613281 297.386719 225.859375 296.597656 226.066406 295.800781 C 226.273438 295.003906 226.441406 294.195312 226.570312 293.378906 C 227.601562 286.300781 228.015625 279.1875 227.800781 272.035156 L 238.546875 286.703125 C 236.328125 299.667969 236.328125 312.632812 238.546875 325.597656 L 207.320312 368.269531 C 206.714844 369.078125 206.175781 369.925781 205.703125 370.816406 C 205.226562 371.707031 204.824219 372.625 204.488281 373.578125 C 204.152344 374.527344 203.890625 375.496094 203.699219 376.488281 C 203.511719 377.476562 203.398438 378.476562 203.359375 379.484375 C 203.324219 380.492188 203.363281 381.496094 203.476562 382.496094 C 203.589844 383.5 203.78125 384.484375 204.042969 385.457031 C 204.308594 386.429688 204.640625 387.378906 205.050781 388.300781 C 205.457031 389.222656 205.929688 390.109375 206.472656 390.960938 C 204.085938 398.507812 202.453125 406.214844 201.570312 414.082031 C 200.6875 421.949219 200.574219 429.828125 201.226562 437.714844 C 201.296875 438.539062 201.410156 439.359375 201.5625 440.171875 C 201.71875 440.984375 201.910156 441.785156 202.144531 442.578125 C 202.378906 443.371094 202.652344 444.152344 202.96875 444.917969 C 203.28125 445.683594 203.632812 446.429688 204.019531 447.160156 C 204.40625 447.890625 204.832031 448.601562 205.292969 449.289062 C 205.753906 449.976562 206.246094 450.636719 206.773438 451.277344 C 207.300781 451.914062 207.855469 452.523438 208.445312 453.105469 C 209.035156 453.6875 209.648438 454.234375 210.292969 454.753906 C 210.9375 455.273438 211.605469 455.761719 212.300781 456.210938 C 212.992188 456.664062 213.707031 457.082031 214.441406 457.460938 C 215.175781 457.839844 215.929688 458.183594 216.699219 458.488281 C 217.46875 458.792969 218.25 459.054688 219.046875 459.28125 C 219.84375 459.507812 220.648438 459.691406 221.460938 459.835938 C 222.277344 459.980469 223.097656 460.082031 223.921875 460.144531 C 224.746094 460.207031 225.574219 460.226562 226.402344 460.203125 C 227.226562 460.179688 228.050781 460.117188 228.871094 460.011719 C 229.691406 459.910156 230.507812 459.761719 231.3125 459.574219 C 232.117188 459.390625 232.914062 459.164062 233.695312 458.894531 C 234.480469 458.628906 235.246094 458.324219 236 457.980469 C 236.75 457.632812 237.484375 457.253906 238.199219 456.835938 C 238.914062 456.417969 239.601562 455.964844 240.273438 455.476562 C 240.941406 454.988281 241.582031 454.46875 242.199219 453.914062 C 242.8125 453.363281 243.398438 452.78125 243.957031 452.167969 C 244.511719 451.558594 245.039062 450.917969 245.53125 450.253906 C 246.023438 449.589844 246.480469 448.902344 246.902344 448.191406 C 247.328125 447.480469 247.714844 446.75 248.0625 446 C 248.414062 445.25 248.722656 444.488281 248.996094 443.707031 C 249.269531 442.925781 249.5 442.132812 249.691406 441.328125 C 249.886719 440.523438 250.035156 439.710938 250.148438 438.890625 C 250.257812 438.070312 250.324219 437.25 250.351562 436.421875 C 250.378906 435.59375 250.367188 434.769531 250.308594 433.945312 C 250.253906 433.121094 250.15625 432.300781 250.019531 431.484375 C 248.019531 420.144531 244.488281 409.304688 239.425781 398.960938 L 250.019531 397.804688 C 250.421875 397.773438 250.816406 397.699219 251.207031 397.589844 C 251.59375 397.476562 251.96875 397.328125 252.328125 397.140625 C 252.6875 396.953125 253.023438 396.734375 253.335938 396.480469 C 253.652344 396.222656 253.9375 395.941406 254.195312 395.628906 C 254.453125 395.316406 254.679688 394.984375 254.867188 394.628906 C 255.058594 394.269531 255.214844 393.898438 255.328125 393.511719 C 255.445312 393.125 255.523438 392.730469 255.558594 392.328125 C 255.597656 391.925781 255.59375 391.523438 255.550781 391.121094 C 255.503906 390.71875 255.421875 390.324219 255.300781 389.9375 C 255.175781 389.554688 255.015625 389.183594 254.820312 388.832031 C 254.625 388.476562 254.394531 388.148438 254.128906 387.839844 C 253.867188 387.53125 253.578125 387.253906 253.257812 387.003906 C 252.9375 386.757812 252.597656 386.542969 252.238281 386.363281 C 251.875 386.179688 251.5 386.039062 251.109375 385.933594 C 250.71875 385.828125 250.320312 385.761719 249.917969 385.734375 C 249.511719 385.710938 249.109375 385.722656 248.710938 385.78125 L 224.496094 388.402344 C 223.707031 388.492188 222.921875 388.464844 222.140625 388.324219 C 221.359375 388.183594 220.617188 387.933594 219.910156 387.574219 C 219.199219 387.214844 218.558594 386.765625 217.984375 386.21875 C 217.40625 385.675781 216.921875 385.058594 216.523438 384.371094 C 216.128906 383.683594 215.835938 382.957031 215.652344 382.183594 C 215.46875 381.414062 215.398438 380.632812 215.441406 379.839844 C 215.488281 379.046875 215.644531 378.277344 215.910156 377.53125 C 216.179688 376.785156 216.550781 376.09375 217.019531 375.457031 L 242.21875 341.042969 C 244.308594 347.597656 246.96875 353.914062 250.199219 359.988281 C 250.371094 360.4375 250.589844 360.859375 250.867188 361.253906 C 252.519531 364.277344 254.308594 367.21875 256.226562 370.082031 C 258.144531 372.945312 260.1875 375.71875 262.351562 378.402344 C 264.519531 381.082031 266.800781 383.664062 269.195312 386.140625 C 271.589844 388.621094 274.09375 390.988281 276.699219 393.242188 C 279.308594 395.496094 282.011719 397.628906 284.808594 399.644531 C 287.609375 401.65625 290.492188 403.542969 293.457031 405.300781 C 296.425781 407.054688 299.464844 408.675781 302.574219 410.164062 C 305.6875 411.648438 308.859375 412.992188 312.089844 414.195312 L 333.488281 462.492188 C 340.609375 478.617188 363.492188 478.617188 370.609375 462.492188 L 391.941406 414.140625 C 404.265625 409.566406 415.480469 403.078125 425.582031 394.667969 L 464.660156 398.960938 C 459.597656 409.304688 456.066406 420.144531 454.066406 431.484375 C 453.925781 432.296875 453.832031 433.117188 453.777344 433.941406 C 453.722656 434.765625 453.707031 435.589844 453.734375 436.417969 C 453.765625 437.242188 453.835938 438.0625 453.945312 438.882812 C 454.054688 439.703125 454.207031 440.511719 454.402344 441.316406 C 454.59375 442.117188 454.828125 442.910156 455.097656 443.691406 C 455.371094 444.46875 455.683594 445.234375 456.03125 445.984375 C 456.382812 446.730469 456.769531 447.460938 457.191406 448.167969 C 457.613281 448.878906 458.070312 449.566406 458.5625 450.230469 C 459.054688 450.894531 459.582031 451.53125 460.136719 452.140625 C 460.691406 452.75 461.277344 453.332031 461.894531 453.886719 C 462.507812 454.4375 463.148438 454.957031 463.816406 455.445312 C 464.484375 455.929688 465.175781 456.382812 465.886719 456.800781 C 466.601562 457.21875 467.332031 457.601562 468.082031 457.945312 C 468.835938 458.289062 469.601562 458.59375 470.382812 458.859375 C 471.167969 459.128906 471.960938 459.355469 472.765625 459.539062 C 473.570312 459.726562 474.382812 459.875 475.203125 459.980469 C 476.019531 460.085938 476.84375 460.148438 477.671875 460.171875 C 478.496094 460.191406 479.320312 460.171875 480.144531 460.113281 C 480.96875 460.050781 481.789062 459.949219 482.601562 459.808594 C 483.417969 459.664062 484.222656 459.480469 485.015625 459.257812 C 485.8125 459.03125 486.59375 458.769531 487.363281 458.464844 C 488.132812 458.164062 488.882812 457.820312 489.617188 457.441406 C 490.351562 457.066406 491.066406 456.648438 491.757812 456.199219 C 492.453125 455.75 493.121094 455.265625 493.765625 454.746094 C 494.410156 454.230469 495.023438 453.679688 495.613281 453.101562 C 496.203125 452.523438 496.761719 451.914062 497.289062 451.277344 C 497.816406 450.640625 498.308594 449.980469 498.769531 449.296875 C 499.230469 448.609375 499.65625 447.902344 500.046875 447.175781 C 500.433594 446.445312 500.785156 445.699219 501.101562 444.933594 C 501.414062 444.171875 501.691406 443.394531 501.925781 442.601562 C 502.164062 441.808594 502.359375 441.007812 502.511719 440.199219 C 502.667969 439.386719 502.78125 438.570312 502.855469 437.746094 C 503.507812 429.855469 503.394531 421.980469 502.511719 414.113281 C 501.628906 406.246094 499.996094 398.539062 497.613281 390.992188 C 498.152344 390.140625 498.628906 389.253906 499.035156 388.332031 C 499.441406 387.410156 499.777344 386.460938 500.039062 385.488281 C 500.304688 384.515625 500.492188 383.527344 500.605469 382.527344 C 500.722656 381.527344 500.761719 380.519531 500.722656 379.515625 C 500.683594 378.507812 500.570312 377.507812 500.382812 376.519531 C 500.195312 375.527344 499.933594 374.558594 499.597656 373.605469 C 499.261719 372.65625 498.855469 371.734375 498.382812 370.847656 C 497.90625 369.957031 497.367188 369.109375 496.765625 368.300781 L 465.550781 325.597656 C 467.773438 312.625 467.773438 299.648438 465.550781 286.671875 L 476.296875 272.007812 C 476.085938 279.15625 476.496094 286.269531 477.53125 293.351562 C 477.652344 294.167969 477.816406 294.976562 478.023438 295.777344 C 478.230469 296.578125 478.476562 297.367188 478.761719 298.140625 C 479.046875 298.917969 479.367188 299.679688 479.730469 300.421875 C 480.09375 301.164062 480.492188 301.886719 480.925781 302.59375 C 481.359375 303.296875 481.828125 303.976562 482.332031 304.632812 C 482.835938 305.285156 483.371094 305.917969 483.9375 306.519531 C 484.503906 307.121094 485.097656 307.691406 485.722656 308.234375 C 486.347656 308.777344 487 309.285156 487.675781 309.761719 C 488.351562 310.238281 489.046875 310.679688 489.769531 311.085938 C 490.488281 311.492188 491.226562 311.863281 491.984375 312.195312 C 492.742188 312.527344 493.515625 312.820312 494.300781 313.074219 C 495.089844 313.328125 495.886719 313.542969 496.695312 313.714844 C 497.503906 313.890625 498.320312 314.023438 499.140625 314.113281 C 499.964844 314.203125 500.789062 314.253906 501.617188 314.261719 C 502.445312 314.269531 503.269531 314.238281 504.09375 314.164062 C 504.917969 314.089844 505.734375 313.972656 506.546875 313.816406 C 507.359375 313.65625 508.160156 313.460938 508.953125 313.222656 C 509.746094 312.984375 510.523438 312.707031 511.285156 312.390625 C 512.050781 312.074219 512.796875 311.71875 513.527344 311.328125 C 514.253906 310.9375 514.960938 310.511719 515.648438 310.046875 C 516.332031 309.585938 516.992188 309.089844 517.628906 308.558594 C 518.261719 308.027344 518.871094 307.46875 519.449219 306.878906 C 520.027344 306.289062 520.574219 305.667969 521.09375 305.023438 C 521.609375 304.378906 522.089844 303.707031 522.539062 303.015625 C 522.988281 302.320312 523.402344 301.605469 523.777344 300.867188 C 524.15625 300.132812 524.496094 299.378906 524.796875 298.609375 C 525.097656 297.839844 525.355469 297.054688 525.578125 296.257812 C 525.800781 295.460938 525.980469 294.65625 526.121094 293.84375 C 526.261719 293.027344 526.363281 292.207031 526.421875 291.382812 C 526.476562 290.558594 526.496094 289.734375 526.46875 288.90625 C 526.445312 288.082031 526.378906 287.257812 526.269531 286.4375 C 526.160156 285.617188 526.011719 284.804688 525.820312 284 Z M 226.554688 400.324219 C 232.191406 410.773438 236.039062 421.847656 238.09375 433.542969 C 240.058594 444.742188 226.863281 452.660156 217.851562 445.332031 C 216.535156 444.273438 215.480469 442.996094 214.691406 441.503906 C 213.902344 440.007812 213.441406 438.417969 213.3125 436.734375 C 212.265625 424.0625 213.386719 411.585938 216.671875 399.300781 C 219.882812 400.460938 223.175781 400.800781 226.554688 400.324219 Z M 274.980469 258.792969 C 275.164062 259.148438 275.375 259.480469 275.625 259.789062 C 275.871094 260.101562 276.144531 260.382812 276.449219 260.640625 C 276.75 260.898438 277.074219 261.125 277.421875 261.316406 C 277.769531 261.511719 278.132812 261.667969 278.507812 261.789062 C 278.886719 261.910156 279.273438 261.996094 279.667969 262.039062 C 280.0625 262.085938 280.457031 262.09375 280.851562 262.0625 C 281.25 262.03125 281.636719 261.960938 282.019531 261.851562 C 282.402344 261.742188 282.769531 261.597656 283.125 261.417969 C 285.019531 260.445312 286.796875 259.289062 288.457031 257.953125 C 294.796875 252.894531 301.503906 252.894531 307.851562 257.953125 C 318.648438 266.566406 331.542969 266.566406 342.347656 257.953125 C 348.691406 252.894531 355.394531 252.894531 361.734375 257.953125 C 372.539062 266.566406 385.433594 266.566406 396.230469 257.953125 C 402.582031 252.894531 409.285156 252.894531 415.625 257.953125 C 424.789062 265.265625 435.359375 266.3125 444.839844 261.402344 C 450.089844 272.226562 453.324219 283.621094 454.550781 295.589844 C 450.097656 296.597656 446.105469 298.542969 442.570312 301.433594 C 436.222656 306.503906 429.519531 306.503906 423.175781 301.433594 C 412.378906 292.820312 399.476562 292.820312 388.679688 301.433594 C 382.339844 306.503906 375.636719 306.503906 369.292969 301.433594 C 358.488281 292.820312 345.59375 292.820312 334.796875 301.433594 C 328.449219 306.503906 321.746094 306.503906 315.402344 301.433594 C 304.605469 292.820312 291.703125 292.820312 280.90625 301.433594 C 274.558594 306.503906 267.851562 306.503906 261.511719 301.433594 C 257.980469 298.542969 253.988281 296.59375 249.535156 295.589844 C 254.832031 243.742188 298.792969 203.167969 352.042969 203.167969 C 356.355469 203.167969 360.652344 203.4375 364.929688 203.980469 C 369.210938 204.519531 373.4375 205.324219 377.617188 206.394531 C 381.792969 207.46875 385.886719 208.796875 389.898438 210.378906 C 393.910156 211.964844 397.808594 213.792969 401.589844 215.867188 C 405.371094 217.941406 409.007812 220.242188 412.5 222.773438 C 415.992188 225.304688 419.3125 228.042969 422.460938 230.988281 C 425.609375 233.9375 428.558594 237.066406 431.3125 240.386719 C 434.070312 243.703125 436.605469 247.179688 438.921875 250.8125 C 433.695312 253.355469 428.332031 252.585938 423.175781 248.476562 C 412.378906 239.863281 399.476562 239.863281 388.679688 248.476562 C 382.339844 253.542969 375.636719 253.542969 369.292969 248.476562 C 358.488281 239.863281 345.59375 239.863281 334.796875 248.476562 C 328.449219 253.542969 321.746094 253.542969 315.402344 248.476562 C 304.605469 239.863281 291.703125 239.863281 280.90625 248.476562 C 279.878906 249.308594 278.78125 250.027344 277.605469 250.632812 C 277.253906 250.8125 276.917969 251.027344 276.605469 251.277344 C 276.296875 251.523438 276.011719 251.796875 275.753906 252.101562 C 275.496094 252.40625 275.269531 252.730469 275.074219 253.078125 C 274.882812 253.425781 274.726562 253.789062 274.601562 254.167969 C 274.480469 254.550781 274.398438 254.9375 274.351562 255.332031 C 274.308594 255.726562 274.300781 256.125 274.335938 256.519531 C 274.367188 256.917969 274.441406 257.304688 274.550781 257.6875 C 274.660156 258.070312 274.804688 258.441406 274.988281 258.792969 Z M 344.597656 154.714844 C 344.914062 153.988281 345.332031 153.324219 345.84375 152.71875 C 346.355469 152.113281 346.945312 151.59375 347.609375 151.160156 C 348.273438 150.726562 348.988281 150.394531 349.746094 150.167969 C 350.507812 149.941406 351.285156 149.828125 352.078125 149.828125 C 352.875 149.828125 353.648438 149.941406 354.410156 150.167969 C 355.171875 150.394531 355.882812 150.726562 356.550781 151.160156 C 357.214844 151.59375 357.800781 152.113281 358.316406 152.71875 C 358.828125 153.324219 359.246094 153.988281 359.5625 154.714844 L 376.777344 193.734375 C 368.640625 191.953125 360.410156 191.0625 352.078125 191.0625 C 343.75 191.0625 335.519531 191.953125 327.382812 193.734375 Z M 214.589844 291.640625 C 214.46875 292.476562 214.261719 293.292969 213.976562 294.089844 C 213.6875 294.882812 213.324219 295.644531 212.878906 296.363281 C 212.4375 297.085938 211.929688 297.753906 211.351562 298.375 C 210.773438 298.992188 210.140625 299.546875 209.449219 300.035156 C 208.757812 300.523438 208.027344 300.941406 207.253906 301.28125 C 206.476562 301.621094 205.675781 301.882812 204.851562 302.058594 C 204.023438 302.238281 203.1875 302.332031 202.339844 302.34375 C 201.492188 302.351562 200.65625 302.273438 199.824219 302.113281 C 198.992188 301.953125 198.1875 301.710938 197.40625 301.386719 C 196.625 301.0625 195.882812 300.660156 195.183594 300.1875 C 194.480469 299.710938 193.835938 299.171875 193.246094 298.566406 C 192.65625 297.960938 192.128906 297.300781 191.671875 296.589844 C 191.214844 295.878906 190.835938 295.128906 190.53125 294.339844 C 190.226562 293.550781 190.003906 292.738281 189.863281 291.902344 C 189.722656 291.070312 189.667969 290.230469 189.699219 289.382812 C 189.730469 288.539062 189.84375 287.707031 190.042969 286.882812 C 191.828125 279.582031 194.328125 272.535156 197.539062 265.738281 C 200.75 258.945312 204.609375 252.539062 209.121094 246.527344 L 213.199219 252.09375 C 216.070312 265.191406 216.535156 278.371094 214.589844 291.640625 Z M 217.085938 236.914062 C 216.617188 236.273438 216.25 235.582031 215.980469 234.835938 C 215.710938 234.089844 215.554688 233.320312 215.511719 232.527344 C 215.46875 231.738281 215.539062 230.957031 215.722656 230.183594 C 215.90625 229.414062 216.195312 228.683594 216.59375 227.996094 C 216.988281 227.308594 217.476562 226.695312 218.050781 226.148438 C 218.628906 225.605469 219.269531 225.152344 219.976562 224.792969 C 220.683594 224.4375 221.429688 224.1875 222.210938 224.046875 C 222.992188 223.902344 223.773438 223.878906 224.5625 223.964844 L 267.058594 228.585938 C 261.433594 234.730469 256.53125 241.40625 252.351562 248.613281 C 248.175781 255.820312 244.820312 263.390625 242.285156 271.324219 Z M 271.46875 370.296875 C 277.3125 370.238281 283.144531 368.089844 288.464844 363.839844 C 294.804688 358.777344 301.511719 358.777344 307.859375 363.839844 C 318.65625 372.453125 331.550781 372.453125 342.355469 363.839844 C 348.695312 358.777344 355.402344 358.777344 361.742188 363.839844 C 372.546875 372.453125 385.441406 372.453125 396.238281 363.839844 C 402.589844 358.777344 409.292969 358.777344 415.632812 363.839844 C 415.945312 364.085938 416.277344 364.300781 416.628906 364.484375 C 416.980469 364.667969 417.351562 364.8125 417.730469 364.921875 C 418.113281 365.035156 418.503906 365.105469 418.898438 365.140625 C 419.296875 365.171875 419.691406 365.167969 420.085938 365.125 C 420.480469 365.078125 420.867188 364.996094 421.246094 364.878906 C 421.625 364.757812 421.992188 364.601562 422.339844 364.410156 C 422.6875 364.214844 423.011719 363.992188 423.316406 363.738281 C 423.621094 363.480469 423.898438 363.195312 424.144531 362.886719 C 424.394531 362.574219 424.609375 362.246094 424.792969 361.890625 C 424.976562 361.539062 425.121094 361.171875 425.234375 360.789062 C 425.34375 360.40625 425.414062 360.019531 425.449219 359.621094 C 425.484375 359.226562 425.480469 358.832031 425.433594 358.4375 C 425.390625 358.042969 425.308594 357.652344 425.1875 357.273438 C 425.070312 356.894531 424.914062 356.53125 424.722656 356.183594 C 424.53125 355.835938 424.304688 355.511719 424.050781 355.207031 C 423.792969 354.902344 423.511719 354.625 423.199219 354.378906 C 412.402344 345.761719 399.5 345.761719 388.703125 354.378906 C 382.363281 359.445312 375.65625 359.445312 369.316406 354.378906 C 358.511719 345.761719 345.617188 345.761719 334.820312 354.378906 C 328.472656 359.445312 321.765625 359.445312 315.425781 354.378906 C 304.628906 345.761719 291.726562 345.761719 280.929688 354.378906 C 274.582031 359.445312 267.875 359.445312 261.535156 354.378906 L 260.671875 353.71875 C 256.980469 346.65625 254.152344 339.265625 252.183594 331.546875 C 250.21875 323.824219 249.167969 315.980469 249.035156 308.015625 C 250.835938 308.714844 252.484375 309.675781 253.984375 310.894531 C 264.765625 319.546875 277.667969 319.546875 288.488281 310.894531 C 294.828125 305.835938 301.535156 305.835938 307.882812 310.894531 C 318.679688 319.511719 331.574219 319.511719 342.378906 310.894531 C 348.71875 305.835938 355.425781 305.835938 361.765625 310.894531 C 372.570312 319.511719 385.464844 319.511719 396.261719 310.894531 C 402.609375 305.835938 409.316406 305.835938 415.65625 310.894531 C 426.453125 319.511719 439.355469 319.511719 450.152344 310.894531 C 451.652344 309.675781 453.300781 308.714844 455.101562 308.015625 C 454.109375 363.980469 408.277344 409.164062 352.070312 409.164062 C 348.210938 409.167969 344.359375 408.949219 340.523438 408.519531 C 336.6875 408.085938 332.886719 407.441406 329.121094 406.582031 C 325.355469 405.722656 321.652344 404.652344 318.007812 403.378906 C 314.363281 402.101562 310.800781 400.625 307.324219 398.945312 C 303.84375 397.269531 300.472656 395.402344 297.203125 393.347656 C 293.9375 391.289062 290.792969 389.054688 287.777344 386.644531 C 284.761719 384.234375 281.890625 381.664062 279.164062 378.929688 C 276.4375 376.195312 273.871094 373.320312 271.46875 370.296875 Z M 359.53125 457.613281 C 359.214844 458.339844 358.796875 459.007812 358.285156 459.613281 C 357.773438 460.21875 357.183594 460.738281 356.519531 461.171875 C 355.855469 461.605469 355.140625 461.933594 354.382812 462.160156 C 353.621094 462.386719 352.84375 462.5 352.050781 462.5 C 351.253906 462.5 350.476562 462.386719 349.71875 462.160156 C 348.957031 461.933594 348.246094 461.605469 347.578125 461.171875 C 346.914062 460.738281 346.328125 460.21875 345.8125 459.613281 C 345.300781 459.007812 344.882812 458.339844 344.566406 457.613281 L 327.351562 418.625 C 335.488281 420.40625 343.71875 421.296875 352.050781 421.296875 C 360.378906 421.296875 368.609375 420.40625 376.746094 418.625 Z M 490.800781 436.734375 C 490.722656 437.566406 490.5625 438.386719 490.320312 439.191406 C 490.074219 439.992188 489.753906 440.761719 489.355469 441.5 C 488.957031 442.238281 488.488281 442.929688 487.949219 443.574219 C 487.410156 444.21875 486.816406 444.800781 486.160156 445.328125 C 485.503906 445.851562 484.804688 446.304688 484.054688 446.6875 C 483.308594 447.070312 482.53125 447.375 481.722656 447.601562 C 480.914062 447.828125 480.09375 447.96875 479.253906 448.03125 C 478.417969 448.089844 477.582031 448.066406 476.75 447.960938 C 475.917969 447.855469 475.105469 447.664062 474.3125 447.394531 C 473.515625 447.125 472.757812 446.777344 472.03125 446.351562 C 471.308594 445.929688 470.632812 445.4375 470.007812 444.878906 C 469.382812 444.320312 468.820312 443.703125 468.316406 443.03125 C 467.816406 442.355469 467.386719 441.640625 467.03125 440.882812 C 466.671875 440.121094 466.394531 439.335938 466.195312 438.519531 C 465.996094 437.707031 465.882812 436.878906 465.851562 436.039062 C 465.816406 435.203125 465.871094 434.367188 466.003906 433.542969 C 468.0625 421.847656 471.90625 410.773438 477.542969 400.324219 C 480.929688 400.804688 484.226562 400.464844 487.441406 399.300781 C 490.730469 411.585938 491.847656 424.0625 490.800781 436.734375 Z M 487.019531 375.417969 C 487.488281 376.058594 487.859375 376.75 488.128906 377.496094 C 488.398438 378.242188 488.554688 379.015625 488.601562 379.804688 C 488.644531 380.597656 488.574219 381.382812 488.390625 382.15625 C 488.207031 382.925781 487.917969 383.65625 487.519531 384.34375 C 487.121094 385.03125 486.636719 385.648438 486.058594 386.195312 C 485.480469 386.738281 484.835938 387.191406 484.128906 387.550781 C 483.417969 387.90625 482.671875 388.15625 481.890625 388.296875 C 481.109375 388.4375 480.324219 388.460938 479.535156 388.375 L 437.039062 383.761719 C 442.667969 377.613281 447.570312 370.9375 451.746094 363.730469 C 455.925781 356.519531 459.28125 348.949219 461.8125 341.011719 Z M 452.6875 250.316406 C 452.503906 249.863281 452.265625 249.445312 451.976562 249.050781 C 447.746094 241.679688 442.757812 234.855469 437.015625 228.585938 L 479.511719 223.964844 C 480.300781 223.878906 481.085938 223.902344 481.867188 224.046875 C 482.648438 224.1875 483.390625 224.4375 484.097656 224.792969 C 484.804688 225.152344 485.449219 225.605469 486.023438 226.148438 C 486.601562 226.695312 487.085938 227.308594 487.484375 227.996094 C 487.878906 228.683594 488.171875 229.414062 488.355469 230.183594 C 488.539062 230.957031 488.609375 231.738281 488.5625 232.527344 C 488.519531 233.320312 488.363281 234.089844 488.097656 234.835938 C 487.828125 235.582031 487.457031 236.273438 486.988281 236.914062 L 461.789062 271.324219 C 459.460938 264.019531 456.425781 257.015625 452.6875 250.316406 Z M 512.40625 296.449219 C 506.140625 306.214844 491.128906 302.855469 489.484375 291.609375 C 487.542969 278.34375 488.003906 265.160156 490.878906 252.0625 L 494.957031 246.496094 C 499.464844 252.511719 503.324219 258.914062 506.535156 265.710938 C 509.75 272.503906 512.246094 279.550781 514.03125 286.851562 C 514.449219 288.496094 514.519531 290.15625 514.25 291.828125 C 513.976562 293.503906 513.382812 295.054688 512.464844 296.480469 Z M 512.40625 296.449219 " fill-opacity="1" fill-rule="nonzero"/></g></svg>