<svg xmlns="http://www.w3.org/2000/svg" xmlns:xlink="http://www.w3.org/1999/xlink" width="940" zoomAndPan="magnify" viewBox="0 0 705 591.000005" height="788" preserveAspectRatio="xMidYMid meet" version="1.0"><defs><clipPath id="761c671f29"><path d="M 133.679688 65.324219 L 571.6875 65.324219 L 571.6875 525.042969 L 133.679688 525.042969 Z M 133.679688 65.324219 " clip-rule="nonzero"/></clipPath></defs><g clip-path="url(#761c671f29)"><path fill="#181847" d="M 471.277344 489.433594 L 506.605469 489.433594 C 508.785156 489.433594 510.546875 487.667969 510.546875 485.492188 L 510.546875 455.488281 C 510.546875 443.574219 500.855469 433.882812 488.941406 433.882812 C 477.027344 433.882812 467.335938 443.574219 467.335938 455.488281 L 467.335938 485.492188 C 467.335938 487.667969 469.101562 489.433594 471.277344 489.433594 Z M 475.21875 455.488281 C 475.21875 447.921875 481.375 441.765625 488.941406 441.765625 C 496.507812 441.765625 502.664062 447.921875 502.664062 455.488281 L 502.664062 481.550781 L 475.214844 481.550781 L 475.214844 455.488281 Z M 216.425781 434.339844 C 204.511719 434.339844 194.820312 444.03125 194.820312 455.945312 L 194.820312 485.949219 C 194.820312 488.125 196.582031 489.890625 198.761719 489.890625 L 234.089844 489.890625 C 236.265625 489.890625 238.03125 488.125 238.03125 485.949219 L 238.03125 455.945312 C 238.03125 444.03125 228.339844 434.339844 216.425781 434.339844 Z M 230.148438 482.003906 L 202.695312 482.003906 L 202.695312 455.945312 C 202.695312 448.378906 208.855469 442.222656 216.417969 442.222656 C 223.984375 442.222656 230.140625 448.378906 230.140625 455.945312 L 230.140625 482.003906 Z M 376.941406 213.886719 C 376.941406 200.507812 366.0625 189.628906 352.683594 189.628906 C 339.304688 189.628906 328.425781 200.507812 328.425781 213.886719 C 328.425781 227.265625 339.304688 238.144531 352.683594 238.144531 C 366.0625 238.144531 376.941406 227.265625 376.941406 213.886719 Z M 336.300781 213.886719 C 336.300781 204.855469 343.648438 197.503906 352.683594 197.503906 C 361.71875 197.503906 369.066406 204.851562 369.066406 213.886719 C 369.066406 222.921875 361.71875 230.265625 352.683594 230.265625 C 343.648438 230.265625 336.300781 222.921875 336.300781 213.886719 Z M 353.535156 315.980469 C 343.203125 315.980469 334.800781 324.386719 334.800781 334.714844 L 334.800781 356.234375 C 334.800781 358.410156 336.566406 360.175781 338.742188 360.175781 L 368.328125 360.175781 C 370.503906 360.175781 372.269531 358.410156 372.269531 356.234375 L 372.269531 334.714844 C 372.269531 324.386719 363.867188 315.980469 353.535156 315.980469 Z M 364.382812 352.292969 L 342.683594 352.292969 L 342.683594 334.710938 C 342.683594 328.726562 347.550781 323.859375 353.535156 323.859375 C 359.515625 323.859375 364.382812 328.726562 364.382812 334.710938 Z M 567.660156 516.96875 L 529.425781 516.96875 L 529.425781 407.171875 L 545.488281 407.171875 C 546.898438 407.171875 548.199219 406.421875 548.90625 405.199219 C 549.605469 403.980469 549.605469 402.480469 548.90625 401.257812 L 498.429688 314.0625 C 497.722656 312.839844 496.425781 312.097656 495.019531 312.097656 L 438.800781 312.097656 L 412.101562 292.617188 L 412.101562 217.453125 L 413.105469 218.734375 C 416.75 223.390625 423.246094 224.722656 428.214844 221.839844 C 428.726562 221.542969 429.214844 221.199219 429.679688 220.832031 C 431.28125 219.542969 432.53125 217.847656 433.289062 215.925781 C 434.773438 212.160156 434.085938 207.753906 431.492188 204.425781 L 356.632812 108.179688 L 356.632812 87.3125 L 369.371094 87.3125 C 371.550781 87.3125 373.3125 85.546875 373.3125 83.371094 C 373.3125 81.195312 371.550781 79.429688 369.371094 79.429688 L 356.632812 79.429688 L 356.632812 69.273438 C 356.632812 67.097656 354.867188 65.332031 352.691406 65.332031 C 350.511719 65.332031 348.746094 67.097656 348.746094 69.273438 L 348.746094 79.421875 L 336.007812 79.421875 C 333.832031 79.421875 332.066406 81.1875 332.066406 83.363281 C 332.066406 85.542969 333.832031 87.308594 336.007812 87.308594 L 348.746094 87.308594 L 348.746094 108.175781 L 273.886719 204.417969 C 271.296875 207.75 270.605469 212.160156 272.089844 215.917969 C 272.847656 217.839844 274.09375 219.535156 275.699219 220.824219 C 276.164062 221.195312 276.652344 221.53125 277.164062 221.828125 C 278.929688 222.851562 280.894531 223.347656 282.847656 223.347656 C 286.394531 223.347656 289.929688 221.726562 292.277344 218.722656 L 293.277344 217.441406 L 293.277344 292.605469 L 266.578125 312.082031 L 210.363281 312.082031 C 208.953125 312.082031 207.652344 312.835938 206.953125 314.046875 L 156.472656 401.246094 C 155.765625 402.464844 155.765625 403.96875 156.472656 405.1875 C 157.175781 406.410156 158.484375 407.160156 159.890625 407.160156 L 175.953125 407.160156 L 175.953125 516.957031 L 137.707031 516.957031 C 135.480469 516.957031 133.679688 518.757812 133.679688 520.988281 C 133.679688 523.214844 135.480469 525.015625 137.707031 525.015625 L 567.664062 525.015625 C 569.890625 525.015625 571.695312 523.214844 571.695312 520.988281 C 571.695312 518.757812 569.890625 516.957031 567.664062 516.957031 Z M 521.546875 516.96875 L 455.066406 516.96875 L 455.066406 407.171875 L 521.546875 407.171875 Z M 348.492188 516.96875 L 317.117188 516.96875 L 317.117188 424.460938 C 317.117188 406.320312 330.863281 391.339844 348.492188 389.371094 Z M 356.375 516.96875 L 356.375 389.371094 C 374.003906 391.335938 387.75 406.320312 387.75 424.460938 L 387.75 516.96875 Z M 352.433594 381.269531 C 328.613281 381.269531 309.234375 400.644531 309.234375 424.464844 L 309.234375 516.976562 L 258.1875 516.976562 L 258.1875 350.582031 L 352.683594 280.515625 L 447.179688 350.582031 L 447.179688 516.976562 L 395.632812 516.976562 L 395.632812 424.464844 C 395.632812 400.644531 376.253906 381.269531 352.433594 381.269531 Z M 352.683594 259.035156 L 469.570312 344.289062 C 470.453125 344.933594 471.113281 345.691406 471.492188 346.472656 C 472.253906 348.074219 472.261719 349.863281 471.503906 351.265625 C 470.847656 352.492188 469.605469 353.40625 468.105469 353.773438 C 466.515625 354.164062 464.703125 353.75 463.238281 352.667969 L 355.035156 272.4375 C 353.640625 271.40625 351.734375 271.40625 350.34375 272.4375 L 242.144531 352.667969 C 240.679688 353.75 238.859375 354.164062 237.273438 353.773438 C 235.773438 353.40625 234.535156 352.492188 233.875 351.265625 C 233.121094 349.863281 233.125 348.066406 233.890625 346.472656 C 234.265625 345.691406 234.929688 344.933594 235.808594 344.289062 L 352.695312 259.035156 Z M 492.746094 319.972656 L 538.664062 399.289062 L 455.066406 399.289062 L 455.066406 356.421875 L 458.539062 359 C 461.910156 361.5 466.085938 362.382812 469.976562 361.433594 C 473.644531 360.53125 476.722656 358.191406 478.4375 355.007812 C 480.375 351.402344 480.4375 346.949219 478.597656 343.085938 C 477.667969 341.121094 476.144531 339.339844 474.207031 337.925781 L 449.597656 319.980469 L 492.734375 319.980469 Z M 286.0625 213.867188 C 284.847656 215.414062 282.675781 215.917969 281.121094 215.011719 C 280.949219 214.914062 280.78125 214.800781 280.632812 214.675781 C 280.09375 214.242188 279.671875 213.671875 279.421875 213.027344 C 278.953125 211.839844 279.21875 210.394531 280.105469 209.25 L 352.683594 115.933594 L 425.269531 209.25 C 426.15625 210.394531 426.417969 211.839844 425.949219 213.023438 C 425.695312 213.667969 425.273438 214.238281 424.742188 214.667969 C 424.585938 214.792969 424.421875 214.90625 424.253906 215.007812 C 422.695312 215.914062 420.523438 215.40625 419.3125 213.859375 L 355.792969 132.695312 C 355.050781 131.738281 353.902344 131.179688 352.691406 131.179688 C 351.476562 131.179688 350.332031 131.738281 349.585938 132.695312 L 286.070312 213.859375 Z M 301.15625 207.371094 L 352.683594 141.523438 L 404.210938 207.371094 L 404.210938 286.863281 L 355.003906 250.972656 C 353.621094 249.964844 351.746094 249.964844 350.363281 250.972656 L 301.15625 286.863281 Z M 212.621094 319.972656 L 255.757812 319.972656 L 231.15625 337.917969 C 229.214844 339.332031 227.699219 341.117188 226.761719 343.082031 C 224.921875 346.941406 224.984375 351.398438 226.925781 355 C 228.640625 358.183594 231.722656 360.53125 235.386719 361.425781 C 236.410156 361.675781 237.457031 361.800781 238.507812 361.800781 C 241.429688 361.800781 244.34375 360.839844 246.828125 358.992188 L 250.300781 356.414062 L 250.300781 399.28125 L 166.710938 399.28125 L 212.628906 319.96875 Z M 183.820312 407.171875 L 250.300781 407.171875 L 250.300781 516.96875 L 183.820312 516.96875 Z M 183.820312 407.171875 " fill-opacity="1" fill-rule="nonzero"/></g></svg>